<svg width="290" height="435" viewBox="0 0 290 435" fill="none" xmlns="http://www.w3.org/2000/svg">
<path d="M0 282.505C0 198.749 46.6846 0 104.273 0C161.861 0 208.546 198.749 208.546 282.505C208.546 322.727 197.56 361.3 178.005 389.741C158.45 418.182 131.928 434.159 104.273 434.159C76.6181 434.159 50.0958 418.182 30.5409 389.741C10.9859 361.3 4.1209e-07 322.727 0 282.505V282.505Z" fill="#3FB58B"/>
<path d="M104.604 433.961C104.376 433.961 104.158 433.869 103.997 433.705C103.836 433.541 103.746 433.319 103.746 433.087V66.9649C103.746 66.7333 103.836 66.5112 103.997 66.3474C104.158 66.1837 104.376 66.0917 104.604 66.0917C104.831 66.0917 105.049 66.1837 105.21 66.3474C105.371 66.5112 105.461 66.7333 105.461 66.9649V433.087C105.461 433.319 105.371 433.541 105.21 433.705C105.049 433.869 104.831 433.961 104.604 433.961Z" fill="#3F3D56"/>
<path d="M104.273 228.303C104.16 228.303 104.049 228.271 103.945 228.208C103.841 228.145 103.746 228.053 103.667 227.937L62.3956 167.913C62.3151 167.798 62.2512 167.66 62.2074 167.509C62.1637 167.357 62.141 167.194 62.1406 167.03C62.1403 166.865 62.1623 166.702 62.2054 166.55C62.2485 166.398 62.3118 166.26 62.3918 166.144C62.4717 166.028 62.5667 165.936 62.6712 165.873C62.7757 165.81 62.8878 165.778 63.0008 165.779C63.1139 165.779 63.2257 165.813 63.33 165.876C63.4342 165.94 63.5288 166.033 63.6082 166.15L104.879 226.174C104.999 226.348 105.081 226.571 105.114 226.812C105.147 227.054 105.13 227.305 105.065 227.533C105 227.761 104.89 227.955 104.749 228.092C104.608 228.229 104.443 228.303 104.273 228.303V228.303Z" fill="#3F3D56"/>
<path d="M104.273 332.216C104.104 332.216 103.938 332.143 103.797 332.006C103.656 331.869 103.546 331.674 103.481 331.447C103.416 331.219 103.399 330.968 103.432 330.726C103.466 330.484 103.547 330.262 103.667 330.088L172.783 229.566C172.862 229.449 172.957 229.356 173.061 229.292C173.165 229.228 173.277 229.195 173.39 229.195C173.503 229.194 173.615 229.226 173.72 229.289C173.824 229.351 173.919 229.444 173.999 229.56C174.079 229.676 174.143 229.814 174.186 229.966C174.229 230.118 174.251 230.281 174.251 230.446C174.25 230.61 174.227 230.773 174.184 230.924C174.14 231.076 174.076 231.213 173.996 231.329L104.88 331.851C104.8 331.967 104.706 332.059 104.602 332.122C104.498 332.184 104.386 332.217 104.273 332.216V332.216Z" fill="#3F3D56"/>
<path d="M138.9 314.641C138.9 248.634 172.725 92 214.45 92C256.175 92 290 248.634 290 314.641C290 346.34 282.04 376.739 267.872 399.153C253.703 421.567 234.487 434.159 214.45 434.159C194.413 434.159 175.197 421.567 161.028 399.153C146.86 376.739 138.9 346.34 138.9 314.641V314.641Z" fill="#68D2FF"/>
<path d="M214.692 434.003C214.527 434.003 214.369 433.93 214.252 433.801C214.136 433.672 214.07 433.497 214.07 433.315V144.775C214.07 144.592 214.136 144.417 214.252 144.288C214.369 144.159 214.527 144.087 214.692 144.087C214.856 144.087 215.014 144.159 215.131 144.288C215.247 144.417 215.313 144.592 215.313 144.775V433.315C215.313 433.497 215.247 433.672 215.131 433.801C215.014 433.93 214.856 434.003 214.692 434.003Z" fill="#3F3D56"/>
<path d="M214.45 271.925C214.369 271.925 214.288 271.899 214.212 271.85C214.137 271.8 214.069 271.728 214.011 271.637L184.109 224.332C184.05 224.241 184.004 224.132 183.972 224.013C183.941 223.893 183.924 223.765 183.924 223.636C183.924 223.506 183.94 223.378 183.971 223.258C184.002 223.138 184.048 223.029 184.106 222.938C184.164 222.846 184.233 222.773 184.308 222.724C184.384 222.675 184.465 222.649 184.547 222.65C184.629 222.65 184.71 222.676 184.786 222.726C184.861 222.777 184.93 222.85 184.987 222.942L214.89 270.247C214.976 270.384 215.036 270.559 215.06 270.75C215.084 270.941 215.071 271.138 215.024 271.318C214.977 271.497 214.898 271.651 214.795 271.759C214.693 271.867 214.573 271.924 214.45 271.924V271.925Z" fill="#3F3D56"/>
<path d="M214.449 353.819C214.326 353.818 214.206 353.761 214.104 353.653C214.002 353.545 213.922 353.391 213.875 353.212C213.828 353.032 213.816 352.835 213.84 352.644C213.864 352.453 213.923 352.278 214.01 352.141L264.087 272.92C264.145 272.828 264.213 272.754 264.289 272.704C264.364 272.654 264.445 272.628 264.527 272.627C264.609 272.627 264.69 272.652 264.766 272.702C264.842 272.751 264.91 272.824 264.968 272.915C265.026 273.007 265.072 273.116 265.103 273.235C265.135 273.355 265.151 273.484 265.15 273.613C265.15 273.743 265.134 273.871 265.102 273.991C265.07 274.11 265.024 274.218 264.966 274.309L214.889 353.531C214.831 353.622 214.763 353.695 214.687 353.744C214.612 353.793 214.531 353.819 214.449 353.819V353.819Z" fill="#3F3D56"/>
</svg>
