<svg width="995" height="679" viewBox="0 0 995 679" fill="none" xmlns="http://www.w3.org/2000/svg">
<path d="M179.902 637.192C279.238 637.032 359.758 631.669 359.747 625.213C359.737 618.757 279.201 613.653 179.864 613.812C80.528 613.972 0.00839995 619.335 0.0187618 625.791C0.0291237 632.247 80.5655 637.351 179.902 637.192Z" fill="#E6E6E6"/>
<path d="M560.363 484.018C638.361 483.892 701.584 479.682 701.576 474.612C701.568 469.543 638.331 465.535 560.333 465.661C482.335 465.786 419.112 469.997 419.12 475.066C419.128 480.135 482.365 484.143 560.363 484.018Z" fill="#E6E6E6"/>
<path d="M816.029 642.9C914.582 642.741 994.453 628.495 994.425 611.079C994.397 593.664 914.481 579.674 815.927 579.832C717.374 579.99 637.503 594.237 637.531 611.652C637.559 629.068 717.475 643.058 816.029 642.9Z" fill="#E6E6E6"/>
<path d="M206.571 307.21L226.824 301.571C226.824 301.571 234.756 299.987 229.909 284.494C225.062 269.001 215.448 273.337 215.448 273.337L197.482 278.557L190.389 280.747L200.369 294.749L201.206 304.082L206.571 307.21Z" fill="#3F3D56"/>
<path d="M167.436 266.274L161.082 291.656L193.64 323.209L196.439 323.911L203.906 321.813L210.261 296.433L203.824 289.664L210.403 287.94L196.363 274.31L189.037 275.848L183.16 270.013L187.126 268.428L187.501 266.935L182.696 263.153L167.436 266.274Z" fill="#3F3D56"/>
<path d="M197.94 302.074L193.734 318.87L174.33 300.526L179.189 283.496L197.94 302.074Z" fill="#32C08D"/>
<path d="M167.436 266.274L166.545 269.833L198.92 301.328L201.719 302.029L208.954 300.071L209.352 300.063L210.261 296.433L203.824 289.664L210.403 287.94L196.363 274.31L189.037 275.848L183.16 270.013L187.126 268.428L187.501 266.935L182.696 263.153L167.436 266.274Z" stroke="#3F3D56" stroke-miterlimit="10"/>
<path d="M185.005 266.607C185.251 265.628 184.28 264.541 182.837 264.18C181.394 263.819 180.025 264.32 179.78 265.299C179.535 266.278 180.506 267.365 181.949 267.726C183.392 268.087 184.76 267.586 185.005 266.607Z" fill="#32C08D"/>
<path d="M205.574 293.771C205.819 292.792 204.848 291.705 203.405 291.344C201.962 290.983 200.593 291.483 200.348 292.463C200.103 293.442 201.074 294.529 202.517 294.89C203.96 295.251 205.329 294.75 205.574 293.771Z" fill="#32C08D"/>
<path d="M220.028 338.828L215.611 323.811C215.611 323.811 227.094 296.428 213.844 293.778C200.594 291.128 199.711 319.395 199.711 319.395L205.011 336.178L220.028 338.828Z" fill="#FFB6B6"/>
<path d="M138.026 309.63C157.405 309.63 173.114 293.92 173.114 274.542C173.114 255.163 157.405 239.453 138.026 239.453C118.647 239.453 102.938 255.163 102.938 274.542C102.938 293.92 118.647 309.63 138.026 309.63Z" fill="#FFB6B6"/>
<path d="M149.379 299.31C149.379 299.31 151.443 325.11 156.603 327.174C161.763 329.238 110.469 343.686 110.469 343.686L125.949 326.142C125.949 326.142 119.451 299.31 112.227 293.118L149.379 299.31Z" fill="#FFB6B6"/>
<path d="M198.828 330.878L212.961 329.111C212.961 329.111 229.745 337.945 229.745 349.428C229.745 360.911 239.461 379.461 239.461 379.461C239.461 379.461 246.528 404.195 230.628 405.961C214.728 407.728 200.595 379.461 200.595 379.461L198.828 330.878Z" fill="#32C08D"/>
<path d="M206.779 471.328L235.27 451.7C239.776 448.538 245.125 446.795 250.629 446.696C256.133 446.597 261.541 448.145 266.158 451.142C270.084 453.759 273.028 457.194 273.028 461.611C273.028 474.861 243.878 505.778 243.878 505.778C243.878 505.778 221.795 554.361 200.595 556.128C186.649 557.392 172.788 559.457 159.079 562.311C159.079 562.311 168.795 597.644 163.495 607.361C158.195 617.077 137.879 628.561 136.112 627.677C134.345 626.794 109.612 603.827 99.0121 571.144C88.4122 538.461 81.3455 513.727 91.0622 511.961C100.779 510.194 206.779 471.328 206.779 471.328Z" fill="#2F2E41"/>
<path d="M270.378 458.961C270.378 458.961 276.561 458.078 275.678 473.094C274.795 488.111 272.145 541.994 267.728 552.594C263.311 563.194 262.428 575.561 264.195 579.977C265.961 584.394 269.495 591.461 263.311 592.344C257.128 593.227 231.511 589.694 228.862 588.811C226.212 587.927 239.462 553.478 237.695 551.711C235.928 549.944 234.162 508.428 234.162 508.428L270.378 458.961Z" fill="#2F2E41"/>
<path d="M261.544 589.694C261.544 589.694 276.561 585.277 278.328 594.994C278.328 594.994 280.978 610.011 269.494 615.311C262.084 618.813 254.991 622.951 248.294 627.677C248.294 627.677 229.744 634.744 228.861 625.911C227.978 617.077 232.394 585.277 232.394 585.277L261.544 589.694Z" fill="#2F2E41"/>
<path d="M161.728 600.294L133.461 577.328C133.461 577.328 138.761 605.594 131.695 610.894L128.467 620.331L137.506 627.725C137.506 627.725 165.261 623.261 161.728 600.294Z" fill="#2F2E41"/>
<path d="M121.978 561.428C121.978 561.428 140.528 566.728 137.878 585.277C135.228 603.827 131.83 623.981 131.83 623.981C131.83 623.981 130.811 673.611 117.561 677.144C104.311 680.677 100.778 673.611 100.778 673.611C100.778 673.611 85.7163 634.828 90.1778 623.261C95.5782 609.259 103.36 593.538 100.778 588.811C98.2368 584.16 102.544 558.778 121.978 561.428Z" fill="#2F2E41"/>
<path d="M111.379 317.628C111.379 317.628 118.445 318.511 129.929 320.278C141.412 322.045 149.362 313.211 155.545 314.978C161.729 316.745 212.962 329.111 212.962 329.111L208.53 363.086C207.078 374.221 203.47 384.884 198.849 395.119C191.399 411.622 202.438 463.321 212.962 473.094C222.115 481.595 234.162 483.694 220.912 498.711C207.662 513.728 184.695 526.978 137.879 522.561C91.062 518.144 84.8787 519.028 84.8787 511.961C84.8787 504.894 101.54 412.144 96.2397 406.845C90.9397 401.545 88.2897 396.244 88.2897 393.595C88.2897 391.823 82.7639 371.896 79.0998 358.876C76.4381 349.687 77.4286 339.825 81.8643 331.348C83.5226 328.245 85.4189 325.862 87.4063 325.578C93.5896 324.695 89.2952 320.278 93.7119 320.278C98.1286 320.278 100.779 321.161 103.429 320.278L111.379 317.628Z" fill="#68D2FF"/>
<path d="M179.082 250.874C179.082 250.874 178.283 207.514 135.722 228.039C135.722 228.039 102.996 226.885 98.4163 268.282L93.9883 311.621L98.7316 308.055L101.91 312.956L110.577 313.842L113.108 306.218L116.107 314.582L185.554 311.326C185.554 311.326 152.23 297.712 146.96 265.293L153.707 270.603L179.082 250.874Z" fill="#2F2E41"/>
<path d="M99.0927 251.255C108.7 251.255 116.488 243.467 116.488 233.859C116.488 224.252 108.7 216.464 99.0927 216.464C89.4855 216.464 81.6973 224.252 81.6973 233.859C81.6973 243.467 89.4855 251.255 99.0927 251.255Z" fill="#2F2E41"/>
<path d="M116.205 227.035C115.279 222.71 112.74 218.901 109.104 216.383C105.468 213.865 101.009 212.828 96.6348 213.483C96.9835 213.385 97.3276 213.279 97.6865 213.202C99.9205 212.725 102.227 212.693 104.473 213.107C106.72 213.521 108.863 214.373 110.78 215.616C112.697 216.858 114.351 218.466 115.646 220.347C116.942 222.228 117.855 224.346 118.332 226.58C118.809 228.814 118.841 231.121 118.427 233.367C118.013 235.614 117.161 237.757 115.918 239.674C114.676 241.591 113.068 243.244 111.187 244.54C109.306 245.836 107.187 246.748 104.953 247.226C104.594 247.302 104.237 247.345 103.879 247.399C108.139 246.21 111.785 243.442 114.075 239.658C116.365 235.874 117.127 231.36 116.205 227.035Z" fill="#2F2E41"/>
<path d="M541.832 105.14C557.668 105.14 570.505 92.3027 570.505 76.4667C570.505 60.6307 557.668 47.7932 541.832 47.7932C525.996 47.7932 513.158 60.6307 513.158 76.4667C513.158 92.3027 525.996 105.14 541.832 105.14Z" fill="#2F2E41"/>
<path d="M556.929 95.556C556.929 95.556 556.497 113.255 558.224 113.687C559.951 114.119 534.481 121.026 534.481 121.026L531.891 96.8511L556.929 95.556Z" fill="#FFB8B8"/>
<path d="M355.759 246.648C355.759 246.648 336.764 246.648 336.333 244.49C335.901 242.331 332.016 262.189 332.016 262.189L339.786 264.779C339.786 264.779 354.464 258.304 355.759 258.304C357.054 258.304 355.759 246.648 355.759 246.648Z" fill="#FFB8B8"/>
<path d="M335.038 254.418C335.038 254.418 338.491 242.763 342.808 242.331C342.808 242.331 328.131 232.834 327.699 229.812C327.267 226.79 322.087 219.02 319.928 221.61C317.77 224.2 317.77 265.211 321.655 269.528C325.54 273.845 342.808 263.46 342.808 263.46C342.808 263.46 332.016 258.735 335.038 254.418Z" fill="#2F2E41"/>
<path d="M569.447 419.757L572.9 438.319L556.928 440.909V419.757H569.447Z" fill="#FFB8B8"/>
<path d="M569.447 436.161C569.447 436.161 572.037 427.959 573.764 429.254C575.491 430.549 578.081 438.751 577.649 440.909C577.217 443.068 574.196 459.904 575.491 462.926C576.786 465.947 569.015 481.488 559.086 480.193C549.158 478.898 550.021 470.264 550.021 470.264L553.474 456.882L554.77 435.729C554.77 435.729 565.994 434.002 569.447 436.161Z" fill="#2F2E41"/>
<path d="M551.861 58.153C558.414 58.153 563.726 52.8409 563.726 46.288C563.726 39.7352 558.414 34.4231 551.861 34.4231C545.308 34.4231 539.996 39.7352 539.996 46.288C539.996 52.8409 545.308 58.153 551.861 58.153Z" fill="#2F2E41"/>
<path d="M567.682 39.8612C567.682 36.9284 566.595 34.0996 564.633 31.9204C562.67 29.7413 559.97 28.3662 557.053 28.0604C557.463 28.0178 557.876 27.9964 558.289 27.9963C561.434 27.9992 564.449 29.2505 566.671 31.4753C568.894 33.7001 570.143 36.7163 570.143 39.8612C570.143 43.0061 568.894 46.0223 566.671 48.2471C564.449 50.4719 561.434 51.7232 558.289 51.7261C557.876 51.726 557.463 51.7046 557.053 51.662C559.97 51.3562 562.67 49.9811 564.633 47.802C566.595 45.6228 567.682 42.794 567.682 39.8612Z" fill="#2F2E41"/>
<path d="M541.819 107.643C551.832 107.643 559.95 99.5258 559.95 89.5123C559.95 79.4988 551.832 71.3813 541.819 71.3813C531.805 71.3813 523.688 79.4988 523.688 89.5123C523.688 99.5258 531.805 107.643 541.819 107.643Z" fill="#FFB8B8"/>
<path d="M577.648 215.566C577.648 215.566 576.785 237.151 573.331 248.375C569.878 259.599 557.427 339.533 560.017 345.577C562.607 351.62 575.921 418.461 572.899 422.347C569.878 426.232 555.632 424.937 555.632 424.937L536.274 343.85C536.274 343.85 540.091 254.418 508.146 252.26C476.201 250.102 423.966 248.807 423.966 248.807C423.966 248.807 390.294 258.735 375.185 258.304C360.075 257.872 351.442 262.189 351.442 262.189L348.852 244.49L415.764 229.812C415.764 229.812 477.064 208.659 510.736 214.271C544.408 219.883 577.648 215.566 577.648 215.566Z" fill="#2F2E41"/>
<path d="M553.474 108.075C553.474 108.075 558.654 105.053 559.949 108.075C561.245 111.097 570.31 113.687 573.764 111.097C577.217 108.507 585.851 111.96 585.851 111.96L595.348 140.02C595.348 140.02 590.6 164.195 586.283 177.577C581.966 190.96 580.239 218.588 581.966 221.178C583.693 223.769 547.43 234.129 529.731 227.654C512.032 221.178 508.146 213.84 508.146 213.84C508.146 213.84 527.573 186.211 521.097 173.261C514.622 160.31 519.802 145.632 519.802 145.632L517.212 130.955L531.89 122.753C531.89 122.753 532.753 114.982 536.206 114.982C539.66 114.982 553.474 108.075 553.474 108.075Z" fill="#D0CDE1"/>
<path d="M523.687 131.386H517.211C515.415 133.067 514.076 135.178 513.321 137.519C512.566 139.86 512.419 142.355 512.894 144.769C514.621 152.971 522.409 180.164 522.409 180.164L528.867 163.332L523.687 131.386Z" fill="#D0CDE1"/>
<path d="M505.093 200.714C505.093 200.714 492.174 214.703 501.671 222.042C511.169 229.38 513.509 205.206 513.509 205.206L505.093 200.714Z" fill="#FFB8B8"/>
<path d="M523.687 171.534L520.665 183.621L515.484 193.118C515.484 193.118 497.785 204.774 497.785 209.091C497.785 209.091 505.556 199.162 515.484 209.091L524.334 187.722L523.687 171.534Z" fill="#D0CDE1"/>
<path d="M538.496 82.2522C549.417 82.2522 558.27 76.94 558.27 70.3872C558.27 63.8344 549.417 58.5223 538.496 58.5223C527.574 58.5223 518.721 63.8344 518.721 70.3872C518.721 76.94 527.574 82.2522 538.496 82.2522Z" fill="#2F2E41"/>
<path d="M577.649 71.3812C577.649 71.3812 563.835 63.6108 558.223 69.2228C552.611 74.8348 575.059 83.4686 575.059 83.4686L577.649 71.3812Z" fill="#FFB8B8"/>
<path d="M582.83 114.119L585.852 111.96C585.852 111.96 589.305 106.78 592.327 108.507C595.349 110.233 613.048 102.031 613.048 102.031C613.048 102.031 606.573 105.053 606.573 99.8729C606.573 94.6926 605.71 95.556 601.393 95.556C597.076 95.556 597.076 97.7144 595.349 94.6926C593.622 91.6707 594.486 89.9439 591.464 91.6707C588.442 93.3975 584.988 92.1024 584.125 90.8073C583.262 89.5122 567.721 87.3538 567.721 87.3538C567.721 87.3538 573.764 69.6544 575.059 68.3594C576.354 67.0643 609.595 81.7419 609.595 81.7419C609.595 81.7419 651.469 93.3975 640.677 106.78C629.884 120.162 591.032 140.452 591.032 140.452L582.83 114.119Z" fill="#D0CDE1"/>
<path d="M663.629 0L741.51 0.483719C741.51 0.483719 869.698 68.6897 779.724 209.939C779.724 209.939 742.961 201.232 702.327 231.223C702.327 231.223 678.625 5.32104 663.629 0Z" fill="#68D2FF"/>
<path opacity="0.2" d="M686.796 0.707054C700.749 58.9898 716.522 209.312 716.522 209.312C752.825 182.517 786.015 186.609 792.682 187.786C788.75 195.572 784.425 203.154 779.724 210.502C779.724 210.502 742.961 201.795 702.327 231.786C702.327 231.786 678.625 5.88421 663.629 0.563171L686.796 0.707054Z" fill="black"/>
<path d="M780.207 73.043L786.979 105.937L872.087 90.467L872.115 90.457L874.05 51.759H857.604L780.207 73.043Z" fill="#3F3D56"/>
<path opacity="0.2" d="M858.979 51.759L872.089 90.467L872.117 90.457L874.052 51.759H858.979Z" fill="black"/>
<path d="M783.11 109.807C788.453 109.807 792.785 99.8445 792.785 87.5553C792.785 75.266 788.453 65.3036 783.11 65.3036C777.767 65.3036 773.436 75.266 773.436 87.5553C773.436 99.8445 777.767 109.807 783.11 109.807Z" fill="#3F3D56"/>
<path d="M833.418 557.796C833.03 557.796 832.645 557.719 832.286 557.571C831.928 557.422 831.602 557.205 831.327 556.93C831.053 556.655 830.835 556.329 830.686 555.971C830.537 555.612 830.461 555.227 830.461 554.839V87.5554C830.461 86.7711 830.773 86.0189 831.327 85.4643C831.882 84.9098 832.634 84.5982 833.418 84.5982C834.202 84.5982 834.955 84.9098 835.509 85.4643C836.064 86.0189 836.375 86.7711 836.375 87.5554V554.839C836.375 555.227 836.299 555.612 836.15 555.97C836.002 556.329 835.784 556.655 835.509 556.93C835.235 557.204 834.909 557.422 834.55 557.571C834.191 557.719 833.807 557.796 833.419 557.796H833.418Z" fill="#3F3D56"/>
<path d="M792.789 640.031C792.352 640.032 791.921 639.936 791.526 639.75C791.13 639.564 790.781 639.293 790.503 638.956C790.225 638.619 790.026 638.225 789.918 637.801C789.811 637.378 789.799 636.936 789.883 636.508L827.631 442.987L728.504 594.192C728.291 594.517 728.016 594.798 727.695 595.017C727.374 595.236 727.013 595.39 726.632 595.469C726.252 595.548 725.859 595.552 725.477 595.48C725.095 595.407 724.731 595.26 724.406 595.047C724.081 594.834 723.801 594.559 723.582 594.237C723.364 593.916 723.211 593.554 723.132 593.174C723.053 592.793 723.05 592.4 723.123 592.019C723.196 591.637 723.344 591.273 723.557 590.948V590.948L830.945 427.146C831.321 426.573 831.884 426.148 832.539 425.944C833.193 425.741 833.898 425.771 834.533 426.029C835.168 426.287 835.693 426.758 836.019 427.361C836.346 427.964 836.452 428.661 836.321 429.334L795.688 637.64C795.557 638.312 795.196 638.919 794.667 639.355C794.138 639.791 793.474 640.03 792.789 640.031V640.031Z" fill="#3F3D56"/>
<path d="M945.646 603.267C945.155 603.267 944.672 603.145 944.239 602.912C943.807 602.679 943.44 602.341 943.171 601.93L830.945 430.69C830.732 430.365 830.584 430.001 830.511 429.62C830.439 429.238 830.442 428.845 830.521 428.465C830.599 428.084 830.753 427.723 830.971 427.401C831.19 427.08 831.47 426.805 831.795 426.592C832.12 426.379 832.484 426.232 832.866 426.16C833.248 426.087 833.641 426.091 834.021 426.171C834.402 426.25 834.763 426.404 835.084 426.623C835.405 426.843 835.679 427.123 835.892 427.449V427.449L948.117 598.689C948.409 599.135 948.575 599.651 948.598 600.184C948.621 600.716 948.499 601.245 948.246 601.714C947.993 602.183 947.618 602.575 947.16 602.848C946.702 603.121 946.179 603.266 945.646 603.267V603.267Z" fill="#3F3D56"/>
</svg>
