<svg width="430" height="483" viewBox="0 0 430 483" fill="none" xmlns="http://www.w3.org/2000/svg">
<path d="M390.323 462.903C362.682 482.816 326.861 483.816 292.236 481.37C287.401 481.028 282.6 480.628 277.844 480.196C277.815 480.189 277.777 480.191 277.748 480.184C277.52 480.162 277.29 480.141 277.072 480.128C276.09 480.036 275.108 479.944 274.135 479.852L274.365 480.29L275.086 481.65C274.827 481.195 274.568 480.749 274.309 480.294C274.233 480.157 274.147 480.021 274.072 479.884C265.102 464.275 256.205 448.093 253.936 430.269C251.59 411.769 258.183 390.82 274.465 381.727C276.6 380.538 278.862 379.591 281.207 378.904C282.181 378.608 283.168 378.368 284.166 378.155C290.273 376.799 296.63 377.094 302.585 379.01C308.54 380.925 313.877 384.392 318.048 389.054C322.218 393.717 325.072 399.405 326.315 405.536C327.558 411.666 327.146 418.017 325.121 423.936C338.926 409.781 336.351 386.817 331.589 367.625C326.818 348.434 321.042 327.079 330.746 309.841C336.14 300.247 345.626 294.294 356.272 291.896C356.599 291.825 356.925 291.755 357.252 291.694C369.936 289.125 383.123 291.435 394.178 298.164C414.533 310.991 424.988 335.312 428.382 359.137C433.849 397.475 421.75 440.261 390.323 462.903Z" fill="#F2F2F2"/>
<path d="M381.399 401.447C380.597 409.903 378.565 418.198 375.369 426.068C372.423 433.033 368.453 439.518 363.59 445.308C353.655 457.259 340.519 466.244 326.252 472.23C315.344 476.698 303.914 479.769 292.236 481.37C287.401 481.029 282.6 480.629 277.844 480.197C277.815 480.19 277.777 480.192 277.748 480.185C277.52 480.163 277.291 480.141 277.072 480.128C276.09 480.037 275.108 479.945 274.136 479.852L274.365 480.291L275.086 481.651C274.827 481.196 274.568 480.75 274.309 480.295C274.233 480.158 274.148 480.022 274.072 479.885C282.827 471.162 289.364 460.467 293.135 448.697C296.906 436.927 297.801 424.425 295.745 412.237C293.593 400.136 288.612 388.715 281.207 378.904C282.181 378.609 283.168 378.369 284.166 378.156C286.98 382.003 289.449 386.092 291.543 390.374C299.056 405.644 301.453 422.928 298.379 439.667C295.521 454.814 288.401 468.831 277.854 480.073C278.778 480.008 279.71 479.933 280.623 479.85C297.906 478.385 315.155 474.67 330.832 467.059C344.232 460.711 355.865 451.166 364.707 439.263C374.202 426.169 378.385 410.419 379.104 394.411C379.866 377.274 377.642 359.835 373.731 343.168C369.738 326.082 363.668 309.549 355.658 293.938C355.479 293.584 355.443 293.175 355.557 292.795C355.672 292.415 355.928 292.093 356.272 291.897C356.56 291.703 356.912 291.63 357.252 291.695C357.419 291.739 357.574 291.82 357.704 291.932C357.835 292.044 357.939 292.185 358.008 292.342C358.996 294.271 359.966 296.201 360.899 298.152C368.668 314.406 374.388 331.563 377.927 349.227C381.363 366.268 383.197 384.094 381.399 401.447Z" fill="white"/>
<path d="M20.4816 471.702C34.6014 481.874 52.8996 482.385 70.5867 481.135C73.0565 480.961 75.5088 480.757 77.9384 480.536C77.9531 480.532 77.9724 480.534 77.9873 480.53C78.104 480.519 78.2211 480.508 78.3328 480.501C78.8342 480.454 79.3359 480.407 79.8327 480.36L79.7153 480.584L79.347 481.279C79.4794 481.046 79.6117 480.818 79.744 480.586C79.783 480.516 79.8266 480.447 79.8653 480.377C84.4473 472.403 88.9917 464.137 90.1509 455.032C91.3491 445.582 87.9817 434.881 79.6643 430.236C78.5735 429.629 77.4184 429.145 76.2203 428.794C75.7229 428.643 75.2187 428.52 74.7089 428.411C71.5895 427.719 68.3419 427.869 65.3001 428.848C62.2583 429.826 59.532 431.597 57.4016 433.979C55.2711 436.36 53.8134 439.266 53.1783 442.398C52.5432 445.53 52.7537 448.774 53.7881 451.797C46.7365 444.566 48.0519 432.836 50.4844 423.032C52.9216 413.229 55.872 402.321 50.915 393.515C49.5115 391.154 47.624 389.116 45.3767 387.536C43.1293 385.956 40.5729 384.87 37.8756 384.348C37.7088 384.312 37.5422 384.276 37.3751 384.245C30.8958 382.933 24.1598 384.113 18.5127 387.55C8.11461 394.103 2.77396 406.526 1.04066 418.696C-1.75213 438.28 4.4282 460.136 20.4816 471.702Z" fill="#F2F2F2"/>
<path d="M25.0404 440.309C25.4503 444.628 26.488 448.865 28.1207 452.886C29.6254 456.443 31.6534 459.756 34.1377 462.714C39.3025 468.759 45.8435 473.475 53.2105 476.466C58.7828 478.748 64.6211 480.317 70.5868 481.135C73.0566 480.961 75.5089 480.756 77.9385 480.536C77.9532 480.532 77.9725 480.533 77.9873 480.53C78.1041 480.519 78.2211 480.507 78.3329 480.501C78.8343 480.454 79.336 480.407 79.8328 480.36L79.7154 480.584L79.3471 481.279C79.4794 481.046 79.6117 480.818 79.7441 480.586C79.7831 480.516 79.8267 480.446 79.8654 480.377C75.3929 475.921 72.0537 470.457 70.1274 464.445C68.2012 458.433 67.744 452.046 68.7943 445.821C69.8935 439.639 72.438 433.805 76.2204 428.794C75.7229 428.642 75.2188 428.52 74.7089 428.411C73.2714 430.376 72.0105 432.465 70.9409 434.652C67.1029 442.453 65.8785 451.282 67.4489 459.832C68.9088 467.57 72.5459 474.73 77.9333 480.473C77.4616 480.439 76.9853 480.401 76.5191 480.358C67.6416 479.771 58.9478 477.556 50.8714 473.825C44.0264 470.582 38.0838 465.706 33.5669 459.626C28.717 452.937 26.58 444.892 26.2129 436.715C25.9303 427.905 26.8537 419.098 28.9574 410.539C30.9974 401.811 34.0978 393.366 38.1894 385.391C38.2809 385.21 38.2993 385.001 38.2409 384.807C38.1826 384.613 38.0518 384.449 37.8757 384.348C37.7289 384.249 37.549 384.212 37.3751 384.245C37.29 384.268 37.2111 384.309 37.1443 384.366C37.0774 384.424 37.0243 384.495 36.989 384.576C36.4842 385.561 35.9889 386.547 35.5124 387.544C31.5437 395.847 28.6218 404.61 26.8139 413.634C24.89 422.386 24.2921 431.378 25.0404 440.309Z" fill="white"/>
<path d="M260.832 0.230752L115.815 24.2985C111.37 25.0427 107.402 27.519 104.78 31.1845C102.158 34.85 101.096 39.4056 101.828 43.8525L139.649 271.735C140.393 276.18 142.869 280.149 146.535 282.771C150.2 285.393 154.756 286.454 159.203 285.723L304.219 261.655C308.664 260.911 312.632 258.434 315.254 254.769C317.876 251.103 318.938 246.548 318.206 242.101L280.385 14.218C279.641 9.77315 277.165 5.80471 273.5 3.18273C269.834 0.560751 265.278 -0.500824 260.832 0.230752V0.230752ZM316.233 242.428C316.88 246.352 315.943 250.372 313.63 253.607C311.316 256.841 307.814 259.026 303.892 259.682L158.875 283.75C154.951 284.396 150.931 283.46 147.697 281.146C144.462 278.832 142.278 275.33 141.622 271.408L103.801 43.525C103.155 39.6011 104.091 35.5811 106.405 32.3466C108.718 29.1122 112.22 26.9274 116.143 26.2716L261.159 2.20377C265.083 1.55744 269.103 2.4938 272.337 4.80746C275.572 7.12111 277.757 10.6232 278.412 14.5455L316.233 242.428Z" fill="#3F3D56"/>
<path d="M235.286 93.6739L171.163 104.316C167.892 104.859 164.54 104.08 161.844 102.152C159.147 100.223 157.328 97.3018 156.785 94.0314C156.242 90.7609 157.021 87.4087 158.95 84.7124C160.878 82.016 163.799 80.1962 167.07 79.6535L231.193 69.0112C234.462 68.4707 237.812 69.2505 240.507 71.1793C243.202 73.1081 245.02 76.028 245.563 79.2972C246.106 82.5664 245.328 85.9172 243.401 88.6131C241.473 91.309 238.555 93.1293 235.286 93.6739V93.6739ZM167.397 81.6265C164.65 82.083 162.198 83.6118 160.578 85.8766C158.958 88.1414 158.305 90.9567 158.76 93.7035C159.216 96.4503 160.744 98.9035 163.009 100.524C165.273 102.144 168.089 102.798 170.835 102.343L234.958 91.7009C237.705 91.2444 240.158 89.7156 241.777 87.4508C243.397 85.186 244.051 82.3706 243.595 79.6238C243.139 76.877 241.611 74.4238 239.347 72.8036C237.082 71.1835 234.267 70.529 231.52 70.9843L167.397 81.6265Z" fill="#68D2FF"/>
<path d="M242.818 139.053L178.695 149.695C177.075 149.965 175.418 149.913 173.818 149.542C172.218 149.172 170.707 148.489 169.371 147.534C168.035 146.579 166.901 145.37 166.032 143.977C165.164 142.583 164.578 141.032 164.309 139.412C164.04 137.792 164.093 136.135 164.465 134.535C164.837 132.936 165.52 131.425 166.476 130.09C167.432 128.754 168.641 127.62 170.036 126.753C171.43 125.885 172.981 125.301 174.601 125.033L238.724 114.39C241.995 113.848 245.347 114.626 248.043 116.555C250.74 118.484 252.559 121.405 253.102 124.675C253.645 127.946 252.866 131.298 250.938 133.994C249.009 136.691 246.088 138.51 242.818 139.053V139.053ZM174.929 127.006C172.183 127.463 169.731 128.992 168.111 131.256C166.492 133.521 165.839 136.336 166.294 139.082C166.75 141.829 168.278 144.282 170.542 145.902C172.806 147.522 175.621 148.177 178.367 147.722L242.49 137.08C245.236 136.623 247.689 135.094 249.308 132.829C250.927 130.565 251.58 127.75 251.124 125.003C250.669 122.257 249.141 119.804 246.877 118.184C244.613 116.564 241.798 115.909 239.052 116.363L174.929 127.006Z" fill="#68D2FF"/>
<path d="M250.349 184.433L186.226 195.075C184.606 195.345 182.949 195.293 181.349 194.922C179.749 194.551 178.238 193.869 176.903 192.914C175.567 191.959 174.432 190.75 173.563 189.356C172.695 187.963 172.109 186.411 171.841 184.791C171.572 183.171 171.625 181.514 171.996 179.915C172.368 178.315 173.052 176.805 174.007 175.469C174.963 174.134 176.173 173 177.567 172.132C178.961 171.265 180.513 170.68 182.133 170.412L246.256 159.77C249.525 159.229 252.876 160.009 255.57 161.938C258.265 163.867 260.084 166.787 260.626 170.056C261.169 173.325 260.391 176.676 258.464 179.372C256.536 182.068 253.618 183.888 250.349 184.433ZM182.46 172.385C181.1 172.611 179.797 173.102 178.626 173.831C177.456 174.56 176.44 175.513 175.638 176.634C174.835 177.756 174.261 179.024 173.949 180.368C173.637 181.711 173.593 183.103 173.819 184.463C174.044 185.824 174.536 187.126 175.265 188.297C175.995 189.467 176.947 190.483 178.069 191.285C179.191 192.087 180.46 192.66 181.803 192.972C183.146 193.284 184.538 193.328 185.898 193.102L250.021 182.46C251.382 182.234 252.685 181.743 253.856 181.014C255.027 180.285 256.043 179.333 256.846 178.211C257.648 177.09 258.222 175.821 258.534 174.477C258.847 173.134 258.891 171.742 258.665 170.381C258.439 169.021 257.948 167.718 257.218 166.547C256.489 165.377 255.536 164.361 254.414 163.559C253.292 162.757 252.023 162.184 250.679 161.872C249.335 161.56 247.944 161.517 246.583 161.743L182.46 172.385Z" fill="#CCCCCC"/>
<path d="M257.88 229.812L193.758 240.454C192.138 240.723 190.482 240.67 188.883 240.298C187.284 239.927 185.774 239.244 184.438 238.289C183.103 237.334 181.969 236.126 181.101 234.732C180.233 233.339 179.648 231.788 179.38 230.169C179.111 228.55 179.164 226.893 179.535 225.294C179.907 223.695 180.589 222.185 181.544 220.85C182.499 219.515 183.708 218.381 185.101 217.513C186.494 216.645 188.045 216.06 189.664 215.791L253.787 205.149C257.057 204.608 260.407 205.388 263.102 207.317C265.797 209.246 267.615 212.166 268.158 215.435C268.7 218.704 267.922 222.055 265.995 224.751C264.068 227.447 261.149 229.267 257.88 229.812V229.812ZM189.992 217.764C188.632 217.99 187.329 218.481 186.159 219.21C184.988 219.94 183.973 220.892 183.171 222.014C181.551 224.279 180.897 227.094 181.353 229.842C181.809 232.589 183.337 235.042 185.602 236.662C187.867 238.283 190.683 238.937 193.43 238.481L257.553 227.839C260.3 227.382 262.753 225.853 264.372 223.588C265.992 221.324 266.646 218.508 266.19 215.762C265.734 213.015 264.206 210.562 261.941 208.941C259.677 207.321 256.862 206.667 254.115 207.122L189.992 217.764Z" fill="#CCCCCC"/>
<path d="M281.592 27.5945L105.007 56.9015C104.877 56.9235 104.744 56.9196 104.616 56.8902C104.488 56.8608 104.367 56.8063 104.259 56.7299C104.152 56.6535 104.061 56.5567 103.992 56.4451C103.922 56.3334 103.875 56.2091 103.853 56.0793C103.832 55.9494 103.836 55.8166 103.866 55.6884C103.896 55.5603 103.951 55.4393 104.028 55.3324C104.104 55.2255 104.201 55.1347 104.313 55.0654C104.425 54.9961 104.55 54.9496 104.68 54.9285L281.264 25.6215C281.394 25.5995 281.527 25.6033 281.655 25.6328C281.783 25.6622 281.904 25.7167 282.012 25.7931C282.119 25.8695 282.21 25.9663 282.279 26.0779C282.349 26.1896 282.396 26.3139 282.418 26.4437C282.439 26.5735 282.435 26.7063 282.405 26.8345C282.375 26.9627 282.32 27.0837 282.244 27.1906C282.167 27.2975 282.07 27.3882 281.958 27.4575C281.846 27.5269 281.721 27.5734 281.592 27.5945V27.5945Z" fill="#3F3D56"/>
<path d="M124.19 45.1143C128.056 45.1143 131.19 41.9803 131.19 38.1143C131.19 34.2483 128.056 31.1143 124.19 31.1143C120.324 31.1143 117.19 34.2483 117.19 38.1143C117.19 41.9803 120.324 45.1143 124.19 45.1143Z" fill="#3FB58B"/>
<path d="M263.619 10.9186L243.889 14.1931C243.628 14.2356 243.36 14.1727 243.145 14.0184C242.93 13.8641 242.785 13.6308 242.742 13.3698C242.699 13.1087 242.761 12.8412 242.914 12.6257C243.068 12.4102 243.301 12.2644 243.561 12.2201L263.292 8.9456C263.553 8.9031 263.82 8.9659 264.035 9.12022C264.25 9.27454 264.395 9.50779 264.439 9.76888C264.482 10.03 264.42 10.2976 264.266 10.5131C264.113 10.7286 263.88 10.8744 263.619 10.9186V10.9186Z" fill="#3F3D56"/>
<path d="M264.601 16.8375L244.871 20.112C244.61 20.1545 244.343 20.0916 244.128 19.9373C243.913 19.783 243.768 19.5497 243.724 19.2887C243.681 19.0276 243.743 18.7601 243.897 18.5446C244.05 18.3291 244.283 18.1832 244.544 18.139L264.274 14.8645C264.535 14.8221 264.803 14.8849 265.017 15.0392C265.232 15.1936 265.377 15.4268 265.421 15.6878C265.464 15.9489 265.402 16.2165 265.249 16.4319C265.095 16.6474 264.862 16.7933 264.601 16.8375V16.8375Z" fill="#3F3D56"/>
<path d="M265.583 22.7566L245.853 26.0311C245.724 26.0531 245.591 26.0492 245.463 26.0198C245.334 25.9903 245.213 25.9358 245.106 25.8594C244.999 25.783 244.908 25.6862 244.838 25.5746C244.769 25.463 244.722 25.3387 244.7 25.2089C244.678 25.0791 244.683 24.9463 244.713 24.8181C244.743 24.69 244.797 24.569 244.874 24.4621C244.951 24.3552 245.048 24.2644 245.16 24.1951C245.272 24.1258 245.396 24.0792 245.526 24.0581L265.256 20.7836C265.386 20.7616 265.519 20.7654 265.647 20.7949C265.775 20.8243 265.896 20.8788 266.004 20.9552C266.111 21.0316 266.202 21.1284 266.271 21.24C266.341 21.3517 266.388 21.476 266.41 21.6058C266.431 21.7356 266.427 21.8684 266.397 21.9966C266.367 22.1248 266.312 22.2458 266.236 22.3527C266.159 22.4596 266.062 22.5503 265.95 22.6197C265.838 22.689 265.713 22.7355 265.583 22.7566Z" fill="#3F3D56"/>
<path d="M299.054 264.413C299.517 262.912 299.645 261.328 299.43 259.773C299.215 258.217 298.661 256.727 297.808 255.409C296.954 254.09 295.822 252.975 294.491 252.141C293.16 251.308 291.663 250.776 290.104 250.584L238.771 190.601L226.798 203.172L277.929 260.685C277.78 263.325 278.604 265.928 280.245 268.001C281.887 270.074 284.232 271.472 286.836 271.932C289.44 272.392 292.122 271.88 294.374 270.494C296.626 269.108 298.291 266.945 299.054 264.413V264.413Z" fill="#A0616A"/>
<path d="M253.641 203.237L235.291 216.647C234.769 217.029 234.171 217.293 233.538 217.423C232.904 217.552 232.25 217.544 231.62 217.398C230.99 217.252 230.399 216.972 229.887 216.576C229.375 216.181 228.954 215.681 228.653 215.108L218.109 195.053C216.172 192.37 215.377 189.029 215.9 185.762C216.422 182.495 218.219 179.569 220.896 177.624C223.573 175.68 226.911 174.876 230.18 175.39C233.448 175.903 236.38 177.692 238.332 180.364L254.19 196.445C254.644 196.905 254.994 197.458 255.215 198.066C255.436 198.674 255.523 199.322 255.471 199.966C255.419 200.611 255.228 201.237 254.912 201.801C254.597 202.365 254.163 202.855 253.641 203.237V203.237Z" fill="#3FB58B"/>
<path d="M218.233 163.162C231.798 163.162 242.794 152.166 242.794 138.601C242.794 125.036 231.798 114.04 218.233 114.04C204.668 114.04 193.672 125.036 193.672 138.601C193.672 152.166 204.668 163.162 218.233 163.162Z" fill="#A0616A"/>
<path d="M228.902 249.409C228.647 249.409 228.393 249.388 228.142 249.346L185.047 242.092C184.009 241.919 183.064 241.387 182.378 240.589C181.692 239.791 181.309 238.777 181.294 237.725C181.163 227.865 181.9 202.977 191.56 184.849C194.58 179.182 199.557 174.806 205.562 172.534C211.568 170.262 218.195 170.249 224.21 172.497C230.225 174.744 235.218 179.101 238.262 184.755C241.306 190.409 242.192 196.976 240.756 203.235C237.523 217.159 235.052 231.25 233.354 245.444C233.224 246.535 232.699 247.54 231.879 248.271C231.059 249.001 230 249.406 228.902 249.409L228.902 249.409Z" fill="#2F2E41"/>
<path d="M138.548 168.538C138.671 169.077 138.751 169.626 138.788 170.178L181.745 194.96L192.187 188.949L203.318 203.521L185.867 215.959C184.458 216.963 182.76 217.484 181.029 217.442C179.299 217.399 177.628 216.797 176.269 215.725L131.973 180.779C129.974 181.519 127.797 181.633 125.731 181.105C123.666 180.578 121.81 179.434 120.411 177.826C119.011 176.218 118.134 174.222 117.897 172.104C117.659 169.985 118.073 167.845 119.081 165.967C120.09 164.089 121.647 162.563 123.544 161.591C125.441 160.62 127.589 160.249 129.703 160.528C131.816 160.807 133.794 161.723 135.374 163.153C136.955 164.584 138.062 166.462 138.548 168.538V168.538Z" fill="#A0616A"/>
<path d="M182.335 192.483C182.465 191.85 182.729 191.252 183.111 190.73C183.492 190.207 183.982 189.774 184.547 189.458L204.26 178.436C206.879 176.414 210.192 175.514 213.474 175.932C216.756 176.35 219.738 178.053 221.767 180.666C223.796 183.28 224.705 186.591 224.296 189.874C223.888 193.157 222.194 196.144 219.586 198.18L203.869 214.501C203.42 214.967 202.877 215.33 202.275 215.567C201.673 215.804 201.027 215.908 200.382 215.873C199.736 215.837 199.105 215.663 198.533 215.362C197.961 215.061 197.46 214.64 197.065 214.128L183.181 196.134C182.786 195.622 182.506 195.031 182.36 194.401C182.214 193.771 182.205 193.117 182.335 192.483Z" fill="#3FB58B"/>
<path d="M161.537 469.689H149.277L146.391 422.554L161.539 422.401L161.537 469.689Z" fill="#A0616A"/>
<path d="M164.663 481.573L125.133 481.572V481.072C125.133 479.051 125.531 477.05 126.304 475.184C127.077 473.317 128.211 471.621 129.639 470.192C131.068 468.763 132.764 467.63 134.631 466.857C136.498 466.083 138.499 465.685 140.519 465.686H140.52L164.664 465.687L164.663 481.573Z" fill="#2F2E41"/>
<path d="M278.537 469.689H266.277L260.445 422.401H278.539L278.537 469.689Z" fill="#A0616A"/>
<path d="M281.663 481.573L242.133 481.572V481.072C242.133 479.051 242.531 477.05 243.304 475.184C244.077 473.317 245.211 471.621 246.639 470.192C248.068 468.763 249.764 467.63 251.631 466.857C253.498 466.083 255.499 465.685 257.519 465.686H257.52L281.664 465.687L281.663 481.573Z" fill="#2F2E41"/>
<path d="M264.599 445.167C263.665 445.165 262.756 444.874 261.994 444.334C261.233 443.795 260.657 443.033 260.346 442.153L221.276 330.526C221.126 330.099 220.863 329.72 220.515 329.43C220.166 329.141 219.746 328.951 219.298 328.882C218.85 328.813 218.392 328.866 217.973 329.037C217.553 329.208 217.188 329.49 216.916 329.853L178.806 380.666C178.509 381.063 178.3 381.518 178.19 382.001L166.047 436.181C165.829 437.144 165.302 438.008 164.546 438.643C163.789 439.277 162.846 439.645 161.86 439.691L147.315 440.353C146.688 440.384 146.061 440.283 145.476 440.055C144.891 439.827 144.36 439.478 143.92 439.03C143.478 438.585 143.133 438.053 142.909 437.467C142.684 436.881 142.585 436.255 142.617 435.628L145.153 386.176C145.953 370.178 150.075 354.522 157.256 340.204C173.221 308.369 182.458 273.587 184.391 238.026L184.422 237.473L229.174 244.593L235.892 253.895C238.89 258.091 242.137 262.104 245.617 265.91C254.173 275.187 256.741 287.593 257.389 296.366C258.226 307.149 259.753 317.867 261.959 328.455L284.153 437.517C284.319 438.136 284.351 438.783 284.247 439.416C284.143 440.049 283.904 440.652 283.548 441.185C283.192 441.718 282.726 442.168 282.181 442.506C281.636 442.845 281.026 443.063 280.39 443.146L265.175 445.13C264.984 445.155 264.791 445.167 264.599 445.167Z" fill="#2F2E41"/>
<path d="M245.39 121.554C243.439 115.64 241.999 109.569 241.086 103.408C240.799 99.8219 241.717 95.9628 244.329 93.4882C249.217 88.8571 257.522 91.0629 262.634 95.4458C270.022 101.78 273.706 111.514 275.099 121.146C276.491 130.777 275.878 140.571 276.214 150.297C276.549 160.023 277.94 170.023 282.898 178.396C287.856 186.77 297.058 193.197 306.763 192.485C310.68 192.273 314.4 190.697 317.277 188.029C318.689 186.686 319.758 185.023 320.395 183.182C321.032 181.34 321.218 179.372 320.938 177.443C325.899 186.326 323.384 198.364 315.985 205.347C308.586 212.33 297.205 214.303 287.478 211.322C277.751 208.341 269.745 200.865 264.963 191.886C260.181 182.906 258.429 172.532 258.683 162.362C258.878 154.552 260.205 146.678 258.886 138.977C257.566 131.277 252.747 123.458 245.147 121.645L245.39 121.554Z" fill="#2F2E41"/>
<path d="M211.264 131.678C209.969 136.006 205.013 138.675 200.555 137.943C196.096 137.211 192.43 133.539 191.076 129.229C189.851 124.827 190.352 120.124 192.478 116.079C193.649 113.654 195.286 111.484 197.297 109.693C199.308 107.903 201.652 106.526 204.195 105.642C206.753 104.794 209.477 104.574 212.137 104.999C214.798 105.424 217.318 106.482 219.484 108.085C219.715 107.113 220.2 106.219 220.891 105.497C221.581 104.775 222.452 104.25 223.413 103.976C225.348 103.454 227.391 103.484 229.31 104.063C234.839 105.638 239.631 109.124 242.832 113.9C245.993 118.661 248.084 124.051 248.961 129.698C250.469 138.166 249.913 147.42 245.157 154.588C240.4 161.755 230.67 165.987 222.776 162.57C222.284 160.054 223.45 157.52 224.799 155.339C226.148 153.159 227.747 151.035 228.265 148.523C228.783 146.012 227.79 142.941 225.361 142.119C223.288 141.419 221.079 142.554 218.896 142.691C217.656 142.769 216.417 142.519 215.304 141.967C214.192 141.415 213.243 140.58 212.555 139.546C211.867 138.512 211.462 137.315 211.382 136.076C211.303 134.836 211.55 133.597 212.1 132.483L211.264 131.678Z" fill="#2F2E41"/>
<path d="M391.815 482.223H10.8149C10.5497 482.223 10.2954 482.117 10.1078 481.93C9.92031 481.742 9.81494 481.488 9.81494 481.223C9.81494 480.957 9.92031 480.703 10.1078 480.516C10.2954 480.328 10.5497 480.223 10.8149 480.223H391.815C392.08 480.223 392.335 480.328 392.522 480.516C392.71 480.703 392.815 480.957 392.815 481.223C392.815 481.488 392.71 481.742 392.522 481.93C392.335 482.117 392.08 482.223 391.815 482.223Z" fill="#CCCCCC"/>
</svg>
