<svg width="729" height="524" viewBox="0 0 729 524" fill="none" xmlns="http://www.w3.org/2000/svg">
<path d="M711.346 523H274.346C269.839 522.995 265.518 521.202 262.331 518.015C259.143 514.828 257.351 510.507 257.346 506V17C257.351 12.4929 259.143 8.17181 262.331 4.98479C265.518 1.79777 269.839 0.00507387 274.346 0H711.346C715.853 0.00507387 720.174 1.79777 723.361 4.98479C726.548 8.17181 728.341 12.4929 728.346 17V506C728.341 510.507 726.548 514.828 723.361 518.015C720.174 521.202 715.853 522.995 711.346 523V523ZM274.346 2C270.369 2.0045 266.556 3.58629 263.744 6.39836C260.932 9.21043 259.35 13.0231 259.346 17V506C259.35 509.977 260.932 513.79 263.744 516.602C266.556 519.414 270.369 520.996 274.346 521H711.346C715.323 520.996 719.135 519.414 721.947 516.602C724.759 513.79 726.341 509.977 726.346 506V17C726.341 13.0231 724.759 9.21043 721.947 6.39836C719.135 3.58629 715.323 2.0045 711.346 2H274.346Z" fill="#3F3D56"/>
<path d="M727.346 41.5903H258.346V43.5903H727.346V41.5903Z" fill="#3F3D56"/>
<path d="M281.346 30C285.764 30 289.346 26.4183 289.346 22C289.346 17.5817 285.764 14 281.346 14C276.927 14 273.346 17.5817 273.346 22C273.346 26.4183 276.927 30 281.346 30Z" fill="#3FB58B"/>
<path d="M306.346 30C310.764 30 314.346 26.4183 314.346 22C314.346 17.5817 310.764 14 306.346 14C301.927 14 298.346 17.5817 298.346 22C298.346 26.4183 301.927 30 306.346 30Z" fill="#68D2FF"/>
<path d="M331.346 30C335.764 30 339.346 26.4183 339.346 22C339.346 17.5817 335.764 14 331.346 14C326.927 14 323.346 17.5817 323.346 22C323.346 26.4183 326.927 30 331.346 30Z" fill="#68D2FF"/>
<path d="M648.846 115H336.846C333.398 115 330.091 113.63 327.653 111.192C325.215 108.754 323.846 105.448 323.846 102C323.846 98.5522 325.215 95.2456 327.653 92.8076C330.091 90.3696 333.398 89 336.846 89H648.846C652.294 89 655.6 90.3696 658.038 92.8076C660.476 95.2456 661.846 98.5522 661.846 102C661.846 105.448 660.476 108.754 658.038 111.192C655.6 113.63 652.294 115 648.846 115V115ZM336.846 91C333.928 91 331.13 92.1589 329.068 94.2218C327.005 96.2847 325.846 99.0826 325.846 102C325.846 104.917 327.005 107.715 329.068 109.778C331.13 111.841 333.928 113 336.846 113H648.846C651.763 113 654.561 111.841 656.624 109.778C658.687 107.715 659.846 104.917 659.846 102C659.846 99.0826 658.687 96.2847 656.624 94.2218C654.561 92.1589 651.763 91 648.846 91H336.846Z" fill="#3F3D56"/>
<path d="M571.701 217.591H429.701C427.579 217.591 425.545 216.748 424.044 215.247C422.544 213.747 421.701 211.712 421.701 209.591C421.701 207.469 422.544 205.434 424.044 203.934C425.545 202.433 427.579 201.591 429.701 201.591H571.701C573.823 201.591 575.858 202.433 577.358 203.934C578.858 205.434 579.701 207.469 579.701 209.591C579.701 211.712 578.858 213.747 577.358 215.247C575.858 216.748 573.823 217.591 571.701 217.591Z" fill="#CCCCCC"/>
<path d="M653.701 244.591H429.701C427.579 244.591 425.545 243.748 424.044 242.247C422.544 240.747 421.701 238.712 421.701 236.591C421.701 234.469 422.544 232.434 424.044 230.934C425.545 229.433 427.579 228.591 429.701 228.591H653.701C655.823 228.591 657.858 229.433 659.358 230.934C660.858 232.434 661.701 234.469 661.701 236.591C661.701 238.712 660.858 240.747 659.358 242.247C657.858 243.748 655.823 244.591 653.701 244.591Z" fill="#CCCCCC"/>
<path d="M376.492 246.091H333.492C330.974 246.088 328.559 245.086 326.778 243.305C324.997 241.524 323.995 239.109 323.992 236.591V209.591C323.995 207.072 324.997 204.657 326.778 202.876C328.559 201.095 330.974 200.093 333.492 200.091H376.492C379.011 200.093 381.426 201.095 383.207 202.876C384.988 204.657 385.989 207.072 385.992 209.591V236.591C385.989 239.109 384.988 241.524 383.207 243.305C381.426 245.086 379.011 246.088 376.492 246.091V246.091ZM333.492 202.091C331.504 202.093 329.597 202.884 328.191 204.29C326.785 205.696 325.994 207.602 325.992 209.591V236.591C325.994 238.579 326.785 240.485 328.191 241.891C329.597 243.297 331.504 244.088 333.492 244.091H376.492C378.481 244.088 380.387 243.297 381.793 241.891C383.199 240.485 383.99 238.579 383.992 236.591V209.591C383.99 207.602 383.199 205.696 381.793 204.29C380.387 202.884 378.481 202.093 376.492 202.091H333.492Z" fill="#CCCCCC"/>
<path d="M571.701 312.591H429.701C427.579 312.591 425.545 311.748 424.044 310.247C422.544 308.747 421.701 306.712 421.701 304.591C421.701 302.469 422.544 300.434 424.044 298.934C425.545 297.433 427.579 296.591 429.701 296.591H571.701C573.823 296.591 575.858 297.433 577.358 298.934C578.858 300.434 579.701 302.469 579.701 304.591C579.701 306.712 578.858 308.747 577.358 310.247C575.858 311.748 573.823 312.591 571.701 312.591Z" fill="#CCCCCC"/>
<path d="M653.701 339.591H429.701C427.579 339.591 425.545 338.748 424.044 337.247C422.544 335.747 421.701 333.712 421.701 331.591C421.701 329.469 422.544 327.434 424.044 325.934C425.545 324.433 427.579 323.591 429.701 323.591H653.701C655.823 323.591 657.858 324.433 659.358 325.934C660.858 327.434 661.701 329.469 661.701 331.591C661.701 333.712 660.858 335.747 659.358 337.247C657.858 338.748 655.823 339.591 653.701 339.591Z" fill="#CCCCCC"/>
<path d="M376.492 341.091H333.492C330.974 341.088 328.559 340.086 326.778 338.305C324.997 336.524 323.995 334.109 323.992 331.591V304.591C323.995 302.072 324.997 299.657 326.778 297.876C328.559 296.095 330.974 295.093 333.492 295.091H376.492C379.011 295.093 381.426 296.095 383.207 297.876C384.988 299.657 385.989 302.072 385.992 304.591V331.591C385.989 334.109 384.988 336.524 383.207 338.305C381.426 340.086 379.011 341.088 376.492 341.091V341.091ZM333.492 297.091C331.504 297.093 329.597 297.884 328.191 299.29C326.785 300.696 325.994 302.602 325.992 304.591V331.591C325.994 333.579 326.785 335.485 328.191 336.891C329.597 338.297 331.504 339.088 333.492 339.091H376.492C378.481 339.088 380.387 338.297 381.793 336.891C383.199 335.485 383.99 333.579 383.992 331.591V304.591C383.99 302.602 383.199 300.696 381.793 299.29C380.387 297.884 378.481 297.093 376.492 297.091H333.492Z" fill="#CCCCCC"/>
<path d="M571.701 407.591H429.701C427.579 407.591 425.545 406.748 424.044 405.247C422.544 403.747 421.701 401.712 421.701 399.591C421.701 397.469 422.544 395.434 424.044 393.934C425.545 392.433 427.579 391.591 429.701 391.591H571.701C573.823 391.591 575.858 392.433 577.358 393.934C578.858 395.434 579.701 397.469 579.701 399.591C579.701 401.712 578.858 403.747 577.358 405.247C575.858 406.748 573.823 407.591 571.701 407.591Z" fill="#F2F2F2"/>
<path d="M653.701 434.591H429.701C427.579 434.591 425.545 433.748 424.044 432.247C422.544 430.747 421.701 428.712 421.701 426.591C421.701 424.469 422.544 422.434 424.044 420.934C425.545 419.433 427.579 418.591 429.701 418.591H653.701C655.823 418.591 657.858 419.433 659.358 420.934C660.858 422.434 661.701 424.469 661.701 426.591C661.701 428.712 660.858 430.747 659.358 432.247C657.858 433.748 655.823 434.591 653.701 434.591Z" fill="#F2F2F2"/>
<path d="M376.492 436.091H333.492C330.974 436.088 328.559 435.086 326.778 433.305C324.997 431.524 323.995 429.109 323.992 426.591V399.591C323.995 397.072 324.997 394.657 326.778 392.876C328.559 391.095 330.974 390.093 333.492 390.091H376.492C379.011 390.093 381.426 391.095 383.207 392.876C384.988 394.657 385.989 397.072 385.992 399.591V426.591C385.989 429.109 384.988 431.524 383.207 433.305C381.426 435.086 379.011 436.088 376.492 436.091Z" fill="#F2F2F2"/>
<path d="M354.991 237.829L352.676 235.74C344.453 228.191 339.025 223.291 339.025 217.187C339.004 216.026 339.217 214.872 339.651 213.795C340.084 212.717 340.729 211.737 341.548 210.913C342.367 210.09 343.343 209.439 344.418 208.999C345.493 208.559 346.645 208.339 347.806 208.352C349.177 208.359 350.53 208.665 351.77 209.248C353.011 209.83 354.11 210.676 354.991 211.726C355.872 210.676 356.971 209.83 358.212 209.247C359.453 208.665 360.806 208.359 362.176 208.352C363.338 208.339 364.49 208.559 365.565 208.999C366.64 209.439 367.616 210.09 368.435 210.913C369.253 211.737 369.899 212.717 370.332 213.795C370.765 214.872 370.978 216.026 370.958 217.187C370.958 223.291 365.529 228.191 357.307 235.74L354.991 237.829Z" fill="#68D2FF"/>
<path d="M354.991 332.829L352.676 330.74C344.453 323.191 339.025 318.291 339.025 312.187C339.004 311.026 339.217 309.872 339.651 308.795C340.084 307.717 340.729 306.737 341.548 305.913C342.367 305.09 343.343 304.439 344.418 303.999C345.493 303.559 346.645 303.339 347.806 303.352C349.177 303.359 350.53 303.665 351.77 304.248C353.011 304.83 354.11 305.676 354.991 306.726C355.872 305.676 356.971 304.83 358.212 304.247C359.453 303.665 360.806 303.359 362.176 303.352C363.338 303.339 364.49 303.559 365.565 303.999C366.64 304.439 367.616 305.09 368.435 305.913C369.253 306.737 369.899 307.717 370.332 308.795C370.765 309.872 370.978 311.026 370.958 312.187C370.958 318.291 365.529 323.191 357.307 330.74L354.991 332.829Z" fill="#3FB58B"/>
<path d="M173.33 316.847H130.33C127.811 316.845 125.397 315.843 123.616 314.062C121.835 312.281 120.833 309.866 120.83 307.347V280.347C120.833 277.829 121.835 275.414 123.616 273.633C125.397 271.852 127.811 270.85 130.33 270.847H173.33C175.849 270.85 178.263 271.852 180.044 273.633C181.825 275.414 182.827 277.829 182.83 280.347V307.347C182.827 309.866 181.825 312.281 180.044 314.062C178.263 315.843 175.849 316.845 173.33 316.847V316.847ZM130.33 272.847C128.342 272.85 126.435 273.641 125.029 275.047C123.623 276.453 122.832 278.359 122.83 280.347V307.347C122.832 309.336 123.623 311.242 125.029 312.648C126.435 314.054 128.342 314.845 130.33 314.847H173.33C175.319 314.845 177.225 314.054 178.631 312.648C180.037 311.242 180.828 309.336 180.83 307.347V280.347C180.828 278.359 180.037 276.453 178.631 275.047C177.225 273.641 175.319 272.85 173.33 272.847H130.33Z" fill="#3F3D56"/>
<path d="M151.831 308.586L149.516 306.497C141.293 298.948 135.865 294.048 135.865 287.944C135.844 286.783 136.057 285.629 136.491 284.552C136.924 283.474 137.569 282.494 138.388 281.671C139.207 280.847 140.183 280.196 141.258 279.756C142.332 279.316 143.485 279.096 144.646 279.109C146.017 279.117 147.37 279.422 148.61 280.005C149.851 280.587 150.95 281.433 151.831 282.483C152.712 281.433 153.811 280.587 155.052 280.005C156.293 279.422 157.645 279.116 159.016 279.109C160.178 279.096 161.33 279.316 162.405 279.756C163.48 280.196 164.456 280.847 165.274 281.671C166.093 282.494 166.738 283.474 167.172 284.552C167.605 285.629 167.818 286.783 167.798 287.944C167.798 294.048 162.369 298.948 154.147 306.497L151.831 308.586Z" fill="#3FB58B"/>
<path d="M126.965 512.106L138.087 509.46L133.175 465.302L116.76 469.207L126.965 512.106Z" fill="#FFB8B8"/>
<path d="M161.992 514.685L127.038 523L123.825 509.495L145.275 504.393C147.048 503.971 148.887 503.902 150.687 504.191C152.487 504.48 154.213 505.121 155.765 506.077C157.317 507.032 158.666 508.285 159.735 509.762C160.803 511.239 161.57 512.912 161.992 514.685V514.685V514.685Z" fill="#2F2E41"/>
<path d="M116.048 483.672L91.8926 400.886L122.078 393.399L139.786 481.075C139.915 481.717 139.903 482.38 139.75 483.017C139.597 483.654 139.307 484.25 138.9 484.764C138.492 485.277 137.978 485.695 137.392 485.989C136.806 486.282 136.164 486.445 135.509 486.464L120.501 486.91C120.456 486.911 120.411 486.912 120.366 486.912C119.393 486.912 118.446 486.596 117.667 486.011C116.889 485.427 116.321 484.607 116.048 483.672V483.672Z" fill="#2F2E41"/>
<path d="M58.0899 512.384L69.5219 512.383L74.9589 468.287L58.0859 468.289L58.0899 512.384Z" fill="#FFB8B8"/>
<path d="M91.5703 522.997L55.6406 523L55.6393 509.118L77.6871 509.116C81.3688 509.116 84.8999 510.578 87.5035 513.181C90.1071 515.784 91.57 519.315 91.5703 522.997V522.997V522.997Z" fill="#2F2E41"/>
<path d="M56.0823 495.251C55.6622 494.844 55.327 494.358 55.0962 493.821C54.8654 493.284 54.7436 492.706 54.7378 492.121L44.3223 409.536C44.318 408.345 44.7856 407.201 45.6227 406.353C46.4598 405.506 47.5984 405.024 48.7896 405.014L72.0379 404.845H72.0711C73.2516 404.849 74.3838 405.314 75.2249 406.143C76.066 406.971 76.5489 408.096 76.5701 409.277L77.8059 490.631C77.8244 491.818 77.3726 492.965 76.5491 493.82C75.7256 494.675 74.5972 495.17 73.4102 495.197L59.2974 496.538C59.2756 496.539 59.2539 496.539 59.2322 496.539C58.0534 496.542 56.9212 496.079 56.0823 495.251V495.251Z" fill="#2F2E41"/>
<path d="M61.0649 221.909C74.6296 221.909 85.626 210.913 85.626 197.348C85.626 183.783 74.6296 172.787 61.0649 172.787C47.5003 172.787 36.5039 183.783 36.5039 197.348C36.5039 210.913 47.5003 221.909 61.0649 221.909Z" fill="#FFB8B8"/>
<path d="M28.7085 405.222C12.7281 392.736 12.8972 378.169 18.3501 358.713C19.8862 353.232 21.5442 347.677 23.2993 341.795C31.4543 314.47 40.6972 283.499 37.1882 257.927L37.6836 257.859L37.1882 257.927C36.227 250.923 38.677 243.556 43.9094 237.715C49.1421 231.873 56.185 228.636 63.2649 228.819C70.3323 229.008 77.2046 232.62 82.1191 238.732C87.0097 244.813 89.344 266.198 90.0359 269.262C93.2124 283.329 95.1296 291.82 96.5046 305.365C98.1308 321.378 117.607 369.256 123.813 377.285C125.461 379.404 126.64 381.849 127.274 384.457C127.907 387.066 127.981 389.779 127.49 392.418C127.033 394.928 126.041 397.311 124.582 399.405C123.123 401.499 121.232 403.254 119.035 404.553C108.963 410.71 97.8955 415.065 86.3288 417.424C81.3115 418.397 76.2126 418.887 71.1018 418.889C55.2449 418.889 40.0935 414.118 28.7085 405.222Z" fill="#3FB58B"/>
<path d="M130.845 312.69C130.208 311.475 129.314 310.415 128.224 309.584C127.134 308.753 125.875 308.171 124.535 307.879C123.196 307.587 121.809 307.592 120.472 307.894C119.134 308.196 117.88 308.788 116.796 309.627L98.1848 299.007L88.9727 308.743L115.466 323.371C116.997 325.099 119.108 326.204 121.4 326.479C123.691 326.753 126.004 326.178 127.9 324.861C129.795 323.545 131.142 321.578 131.685 319.335C132.228 317.092 131.929 314.727 130.845 312.69V312.69Z" fill="#FFB8B8"/>
<path d="M102.473 319.888L69.116 309.409C64.6375 307.992 60.7013 305.235 57.8386 301.51C54.9759 297.786 53.3243 293.273 53.1068 288.581L51.6715 256.17C51.5908 254.346 51.8787 252.526 52.518 250.816C53.1572 249.107 54.1347 247.544 55.3919 246.221C56.6491 244.898 58.1602 243.842 59.8349 243.117C61.5095 242.391 63.3133 242.011 65.1383 241.999C66.9633 241.986 68.7721 242.342 70.4563 243.045C72.1406 243.748 73.6658 244.783 74.9407 246.089C76.2156 247.395 77.2141 248.945 77.8763 250.645C78.5385 252.346 78.8509 254.163 78.7948 255.987L77.8773 285.807L113.379 300.285C114.006 300.541 114.567 300.935 115.02 301.438C115.474 301.94 115.808 302.539 115.998 303.188C116.188 303.838 116.229 304.523 116.118 305.19C116.007 305.858 115.747 306.492 115.357 307.046L107.5 318.189C106.951 318.97 106.168 319.555 105.265 319.861C104.361 320.167 103.383 320.176 102.473 319.888H102.473Z" fill="#2F2E41"/>
<path d="M21.4812 227.911C22.6035 221.18 22.5623 214.204 22.5222 207.456C22.5115 205.625 22.5005 203.794 22.5117 201.966C22.564 193.473 23.0911 184.47 26.5635 176.183C30.3428 167.163 37.3413 160.65 45.2847 158.76C54.2402 156.627 63.9578 161.342 66.8833 169.105C68.8172 168.013 70.9695 167.364 73.1849 167.204C75.4003 167.044 77.6234 167.378 79.694 168.182C81.7646 168.986 83.631 170.239 85.1584 171.852C86.6859 173.464 87.8364 175.396 88.5269 177.507C89.2175 179.618 89.4308 181.856 89.1515 184.059C88.8722 186.263 88.1073 188.377 86.9119 190.249C85.7166 192.121 84.1206 193.704 82.2391 194.884C80.3576 196.065 78.2376 196.813 76.032 197.075L75.6567 197.108L72.7302 189.502C72.7136 189.636 72.6978 189.77 72.6816 189.906C72.4954 191.483 72.3027 193.114 71.0007 194.056C69.3752 195.231 67.3508 199.101 67.9424 203.021C68.3112 205.027 68.8608 206.996 69.5845 208.903C70.3887 210.996 70.9726 213.168 71.3267 215.382C71.6987 218.221 70.9559 221.093 69.2544 223.396C68.7501 224.068 68.1142 224.63 67.3855 225.048C66.6568 225.466 65.8505 225.732 65.0159 225.828L32.0281 229.239L30.5532 218.221L21.1699 229.777L21.4812 227.911Z" fill="#2F2E41"/>
<path d="M193 523.591H1C0.734784 523.591 0.480429 523.485 0.292892 523.298C0.105356 523.11 0 522.856 0 522.591C0 522.325 0.105356 522.071 0.292892 521.883C0.480429 521.696 0.734784 521.591 1 521.591H193C193.265 521.591 193.52 521.696 193.707 521.883C193.895 522.071 194 522.325 194 522.591C194 522.856 193.895 523.11 193.707 523.298C193.52 523.485 193.265 523.591 193 523.591Z" fill="#CCCCCC"/>
</svg>
