<svg width="183" height="220" viewBox="0 0 183 220" fill="none" xmlns="http://www.w3.org/2000/svg">
<path d="M78.4854 35.7084H26.2227V95.0199H78.4854V35.7084Z" fill="#2F2E41"/>
<path d="M107.723 211.721H31.5996V183.49C31.6122 176.861 32.7914 170.286 35.0831 164.065C35.1991 163.748 35.3151 163.435 35.436 163.123C38.8087 154.356 43.1946 149.209 43.1946 149.209C73.9465 166.349 92.5993 150.721 92.5993 150.721L95.9367 164.181L96.1787 165.159L105.056 200.963L105.298 201.946L107.723 211.721Z" fill="#2F2E41"/>
<path d="M96.1795 165.159C84.7257 167.947 74.5776 168.905 66.0225 168.905C60.6969 168.917 55.3782 168.525 50.1121 167.73C45.0025 166.964 39.9727 165.737 35.084 164.065C35.2 163.748 35.3159 163.435 35.4369 163.123C40.2792 164.778 45.262 165.99 50.3239 166.742C60.7241 168.335 76.4126 168.93 95.9376 164.181L96.1795 165.159Z" fill="#3F3D56"/>
<path d="M105.3 201.946C90.0706 206.71 76.7817 208.227 66.0236 208.227C60.698 208.239 55.3792 207.847 50.1132 207.053C41.4523 205.717 35.1355 203.534 31.6016 202.077V200.983C34.9843 202.415 41.3817 204.693 50.325 206.064C62.2981 207.899 81.2836 208.409 105.058 200.963L105.3 201.946Z" fill="#3F3D56"/>
<path d="M107.473 84.428L96.7397 102.96V102.965L96.3818 103.585L71.6794 125.767L41.4316 105.097L28.3242 88.4611C28.3242 88.4611 30.3407 81.9074 37.3986 80.8991C39.2588 80.6319 40.8368 80.3698 42.2735 80.0673C43.2515 79.8606 44.1639 79.6388 45.0563 79.3867C47.8239 78.6053 50.3799 77.5416 54.0349 75.8578C60.5886 72.833 52.0183 63.2546 52.0183 63.2546L69.6629 52.1637C69.6629 52.1637 77.4971 77.6223 91.2347 77.3954C91.4363 77.3954 91.638 77.3853 91.8446 77.3702C92.6008 77.3148 93.3217 77.2895 94.0074 77.2845C106.117 77.2038 107.473 84.428 107.473 84.428Z" fill="#FFB8B8"/>
<path d="M45.9688 98.5437L42.2734 80.0673C43.2515 79.8606 44.1639 79.6388 45.0562 79.3867L45.9688 98.5437Z" fill="#3F3D56"/>
<path d="M94.007 77.2844L90.584 95.7709L91.2343 77.3954C91.4359 77.3954 91.6377 77.3852 91.8443 77.3701C92.6005 77.3147 93.3214 77.2895 94.007 77.2844Z" fill="#3F3D56"/>
<path d="M53.0261 65.2712C63.6062 65.2712 72.183 56.6943 72.183 46.1142C72.183 35.5341 63.6062 26.9573 53.0261 26.9573C42.446 26.9573 33.8691 35.5341 33.8691 46.1142C33.8691 56.6943 42.446 65.2712 53.0261 65.2712Z" fill="#FFB8B8"/>
<path d="M31.3479 85.4363L28.3232 88.4611C28.3232 88.4611 23.786 129.296 28.3232 148.957L49.4966 203.403C49.4966 203.403 55.042 222.56 67.1412 218.527C79.2403 214.494 57.0586 192.312 57.0586 192.312L41.4305 149.461V96.023L31.3479 85.4363Z" fill="#FFB8B8"/>
<path d="M99.9092 79.8909L107.471 84.428C107.471 84.428 114.025 107.114 108.479 138.37L99.9092 197.857C99.9092 197.857 94.8679 220.543 84.2812 214.998C73.6945 209.452 91.339 190.799 91.339 190.799L95.8762 144.42L96.8844 96.023L99.9092 79.8909Z" fill="#FFB8B8"/>
<path d="M69.1571 114.676L45.463 95.0147L40.4217 107.114C40.4217 107.114 35.3804 157.527 39.4134 156.519C43.4465 155.51 43.9506 150.973 47.4795 154.502C51.0084 158.031 73.1901 163.072 76.2149 160.048C79.2397 157.023 93.8595 152.486 93.8595 152.486C93.8595 152.486 99.909 147.948 97.8925 141.899C95.876 135.849 97.8925 134.841 98.3967 132.32C98.9008 129.8 98.3967 103.081 98.3967 103.081L91.3388 90.9817L69.1571 114.676Z" fill="#3FB58B"/>
<path d="M69.7913 81.1635C74.2664 80.6077 78.1474 77.7631 81.3262 72.709L80.4726 72.1724C77.464 76.9557 73.8302 79.644 69.6726 80.1624C62.2845 81.0833 55.62 74.8193 55.5536 74.756L54.8574 75.4854C55.1223 75.7384 61 81.2652 68.1361 81.2652C68.1407 81.2652 68.1454 81.2647 68.1499 81.2647V89.2427C67.5291 89.3056 66.9537 89.5966 66.5353 90.0594C66.1168 90.5223 65.885 91.124 65.8847 91.7479C65.8845 92.3719 66.1159 92.9738 66.5341 93.4369C66.9522 93.9001 67.5274 94.1915 68.1481 94.2548C68.7689 94.3181 69.3911 94.1488 69.8941 93.7796C70.3972 93.4104 70.7453 92.8676 70.871 92.2565C70.9967 91.6453 70.8912 91.0092 70.5747 90.4714C70.2583 89.9336 69.7535 89.5324 69.1582 89.3455V81.222C69.3687 81.2061 69.5793 81.1899 69.7913 81.1635Z" fill="#3FB58B"/>
<path d="M52.2698 13.0936C52.2698 13.0936 32.8851 15.5172 28.5452 27.2117C24.2053 38.9062 16.6106 45.0458 16.6106 45.0458C16.6106 45.0458 4.64697 53.3619 10.6288 68.2074C10.6288 68.2074 -7.98199 80.714 4.3143 91.8237C4.3143 91.8237 3.59099 102.933 10.8241 110.535C10.8241 110.535 16.6106 113.458 14.4407 115.213C12.2707 116.967 28.9069 115.797 27.4603 100.01C26.0136 84.2223 35.7783 73.1013 35.7783 73.1013C35.7783 73.1013 26.3753 52.6322 30.7152 45.6155C33.3501 41.3554 34.4816 38.1785 36.669 36.3399C37.8871 35.3404 39.0168 34.2378 40.0457 33.0445C41.3927 31.4441 44.1192 29.2644 48.4363 30.4277C50.2785 30.8994 51.9842 31.7969 53.4165 33.0478C57.7408 36.8851 62.4203 40.3021 67.3919 43.2529C69.7299 44.6402 72.1783 46.208 74.4516 47.8786C78.6612 50.9723 75.1834 57.5287 70.9744 63.0177C64.747 71.1387 64.624 82.5472 71.1375 90.4405C71.3289 90.6725 71.5241 90.9 71.7231 91.1231C78.092 98.2557 69.8877 104.473 69.4123 105.272C68.3273 107.097 63.9944 118.619 81.8929 118.67C81.8929 118.67 86.0485 109.95 91.835 104.688C97.6215 99.4251 93.2816 84.2223 93.2816 84.2223C93.2816 84.2223 101.961 78.9598 92.5583 66.0959C92.5583 66.0959 97.5319 50.4387 89.5755 42.8373C89.5755 42.8373 76.8624 9.00057 52.2698 13.0936Z" fill="#2F2E41"/>
<path d="M73.9464 50.3992C75.3385 50.3992 76.4671 48.7064 76.4671 46.6183C76.4671 44.5301 75.3385 42.8373 73.9464 42.8373C72.5543 42.8373 71.4258 44.5301 71.4258 46.6183C71.4258 48.7064 72.5543 50.3992 73.9464 50.3992Z" fill="#FFB8B8"/>
<path d="M74.1982 62.5105C71.2727 62.5105 68.8926 59.452 68.8926 55.6926C68.8926 51.9331 71.2727 48.8745 74.1982 48.8745C74.2683 48.8745 74.3355 48.9024 74.3851 48.9519C74.4347 49.0015 74.4625 49.0687 74.4625 49.1388C74.4625 49.209 74.4347 49.2762 74.3851 49.3258C74.3355 49.3753 74.2683 49.4032 74.1982 49.4032C71.5642 49.4032 69.4212 52.2246 69.4212 55.6926C69.4212 59.1605 71.5642 61.9819 74.1982 61.9819C76.8322 61.9819 78.9753 59.1605 78.9753 55.6926C78.9753 52.6007 77.8669 50.3391 76.0098 49.6426C75.9443 49.6178 75.8914 49.5681 75.8625 49.5043C75.8336 49.4405 75.8312 49.3679 75.8558 49.3024C75.8804 49.2368 75.93 49.1837 75.9937 49.1547C76.0574 49.1256 76.1301 49.1231 76.1957 49.1475C78.2672 49.9246 79.504 52.3714 79.504 55.6926C79.504 59.452 77.1239 62.5105 74.1982 62.5105Z" fill="#3FB58B"/>
<path d="M76.3333 47.8411C76.177 48.6705 75.745 49.4229 75.1074 49.976Z" fill="#FFB8B8"/>
<path d="M57.5163 192.121L47.0801 197.26L47.3341 197.775L57.7703 192.637L57.5163 192.121Z" fill="#68D2FF"/>
<path d="M52.4711 196.976C53.7409 196.976 54.7703 195.946 54.7703 194.677C54.7703 193.407 53.7409 192.377 52.4711 192.377C51.2013 192.377 50.1719 193.407 50.1719 194.677C50.1719 195.946 51.2013 196.976 52.4711 196.976Z" fill="#68D2FF"/>
<path d="M128.743 137.533C120.84 133.128 121.06 126.146 122.637 121.065C123.335 118.824 124.383 116.707 125.742 114.792C132.854 104.725 133.497 98.185 132.784 94.4715C132.009 90.439 129.524 88.7835 129.499 88.7672L129.812 88.2853C129.923 88.357 132.528 90.0926 133.348 94.3631C134.416 99.9239 132.015 106.909 126.211 115.124C124.888 116.989 123.867 119.051 123.186 121.235C121.672 126.113 121.457 132.813 129.023 137.031L128.743 137.533Z" fill="#2F2E41"/>
<path d="M164.301 73.7299L164.021 73.2278C171.587 69.0098 171.372 62.3094 169.859 57.4314C169.178 55.2479 168.156 53.1855 166.833 51.3203C161.029 43.1053 158.628 36.1203 159.696 30.5595C160.516 26.289 163.121 24.5534 163.232 24.4817L163.545 24.9633C163.52 24.9799 161.023 26.6571 160.256 30.6906C159.551 34.402 160.201 40.9362 167.302 50.9885C168.661 52.9031 169.709 55.0199 170.408 57.261C171.984 62.3422 172.204 69.3241 164.301 73.7299Z" fill="#2F2E41"/>
<path d="M181.173 45.1324C179.923 47.0465 177.964 48.3858 175.727 48.8559C173.49 49.326 171.158 48.8884 169.243 47.6393C167.328 46.3902 165.988 44.4318 165.517 42.1948C165.046 39.9578 165.483 37.6253 166.731 35.7101C169.333 31.7219 182.432 27.4231 182.432 27.4231C182.432 27.4231 183.775 41.1443 181.173 45.1324Z" fill="#68D2FF"/>
<path d="M178.012 18.4039C176.762 20.3174 174.803 21.6562 172.566 22.1259C170.329 22.5957 167.997 22.158 166.083 20.9091C164.169 19.6602 162.828 17.7022 162.357 15.4656C161.886 13.229 162.322 10.8968 163.57 8.98159C166.172 4.99343 179.271 0.69458 179.271 0.69458C179.271 0.69458 180.614 14.4157 178.012 18.4039Z" fill="#3FB58B"/>
<path d="M146.545 37.2216C147.382 37.9845 148.06 38.9048 148.541 39.9298C149.022 40.9548 149.297 42.0645 149.349 43.1956C149.401 44.3266 149.23 45.4569 148.845 46.5218C148.46 47.5868 147.87 48.5655 147.107 49.4022C146.344 50.2389 145.424 50.9171 144.399 51.3981C143.374 51.8792 142.264 52.1536 141.133 52.2058C140.002 52.258 138.872 52.0868 137.807 51.7022C136.742 51.3175 135.763 50.7269 134.926 49.964C131.408 46.7556 129.268 33.136 129.268 33.136C129.268 33.136 143.026 34.0132 146.545 37.2216Z" fill="#3FB58B"/>
<path d="M126.426 73.4344C128.116 74.9751 129.124 77.124 129.23 79.4083C129.335 81.6926 128.529 83.9252 126.988 85.615C125.447 87.3047 123.298 88.3132 121.014 88.4186C118.73 88.5239 116.497 87.7175 114.807 86.1768C111.289 82.9684 109.148 69.3488 109.148 69.3488C109.148 69.3488 122.907 70.226 126.426 73.4344Z" fill="#3FB58B"/>
<path d="M148.976 78.5132C146.098 78.5132 140.595 75.788 140.342 75.6622L140.021 75.5022L140.248 75.2238C140.441 74.9859 145.009 69.3898 147.578 68.8335C148.852 68.5582 150.184 68.8004 151.28 69.5069C152.377 70.2133 153.147 71.3262 153.423 72.6008C153.699 73.8754 153.458 75.2074 152.752 76.304C152.046 77.4006 150.934 78.1719 149.659 78.4485C149.434 78.494 149.205 78.5157 148.976 78.5132V78.5132ZM140.926 75.3063C142.282 75.9532 147.473 78.3341 149.538 77.8866C150.663 77.6418 151.644 76.9605 152.267 75.9922C152.89 75.024 153.103 73.848 152.86 72.7228C152.616 71.5975 151.936 70.615 150.968 69.9911C150 69.3672 148.825 69.1529 147.699 69.3954C145.633 69.8427 141.893 74.1568 140.926 75.3063V75.3063Z" fill="#2F2E41"/>
</svg>
