<svg width="1129" height="663" viewBox="0 0 1129 663" fill="none" xmlns="http://www.w3.org/2000/svg">
<path d="M321 642C498.283 642 642 498.283 642 321C642 143.717 498.283 0 321 0C143.717 0 0 143.717 0 321C0 498.283 143.717 642 321 642Z" fill="#F2F2F2"/>
<path d="M559 663C842.874 663 1073 650.688 1073 635.5C1073 620.312 842.874 608 559 608C275.126 608 45 620.312 45 635.5C45 650.688 275.126 663 559 663Z" fill="#3F3D56"/>
<path opacity="0.2" d="M558 649C812.051 649 1018 639.15 1018 627C1018 614.85 812.051 605 558 605C303.949 605 98 614.85 98 627C98 639.15 303.949 649 558 649Z" fill="black"/>
<path d="M971 152.5H131V202.5H971V152.5Z" fill="#3F3D56"/>
<path d="M131 608.83C131 611.676 131.561 614.494 132.65 617.123C133.739 619.752 135.335 622.141 137.347 624.153C139.359 626.165 141.748 627.761 144.377 628.85C147.006 629.939 149.824 630.5 152.67 630.5H949.33C952.176 630.5 954.994 629.939 957.623 628.85C960.252 627.761 962.641 626.165 964.653 624.153C966.665 622.141 968.261 619.752 969.35 617.123C970.439 614.494 971 611.676 971 608.83V177.5H131V608.83Z" fill="#3F3D56"/>
<path d="M949.33 117.5H152.67C149.824 117.5 147.006 118.061 144.377 119.15C141.748 120.239 139.359 121.835 137.347 123.847C135.335 125.859 133.739 128.248 132.65 130.877C131.561 133.506 131 136.324 131 139.17V177.5H971V139.17C971 136.324 970.439 133.506 969.35 130.877C968.261 128.248 966.665 125.859 964.653 123.847C962.641 121.835 960.252 120.239 957.623 119.15C954.994 118.061 952.176 117.5 949.33 117.5V117.5Z" fill="#3F3D56"/>
<path opacity="0.2" d="M949.33 117.5H152.67C149.824 117.5 147.006 118.061 144.377 119.15C141.748 120.239 139.359 121.835 137.347 123.847C135.335 125.859 133.739 128.248 132.65 130.877C131.561 133.506 131 136.324 131 139.17V177.5H971V139.17C971 136.324 970.439 133.506 969.35 130.877C968.261 128.248 966.665 125.859 964.653 123.847C962.641 121.835 960.252 120.239 957.623 119.15C954.994 118.061 952.176 117.5 949.33 117.5V117.5Z" fill="#32C08D"/>
<path d="M181 160.5C188.18 160.5 194 154.68 194 147.5C194 140.32 188.18 134.5 181 134.5C173.82 134.5 168 140.32 168 147.5C168 154.68 173.82 160.5 181 160.5Z" fill="#3F3D56"/>
<path d="M217 160.5C224.18 160.5 230 154.68 230 147.5C230 140.32 224.18 134.5 217 134.5C209.82 134.5 204 140.32 204 147.5C204 154.68 209.82 160.5 217 160.5Z" fill="#3F3D56"/>
<path d="M253 160.5C260.18 160.5 266 154.68 266 147.5C266 140.32 260.18 134.5 253 134.5C245.82 134.5 240 140.32 240 147.5C240 154.68 245.82 160.5 253 160.5Z" fill="#3F3D56"/>
<path opacity="0.2" d="M499.665 213.5H173.335C170.389 213.5 168 215.889 168 218.835V594.165C168 597.111 170.389 599.5 173.335 599.5H499.665C502.611 599.5 505 597.111 505 594.165V218.835C505 215.889 502.611 213.5 499.665 213.5Z" fill="#32C08D"/>
<path d="M319.144 306.541C342.374 306.541 361.206 287.709 361.206 264.479C361.206 241.249 342.374 222.417 319.144 222.417C295.914 222.417 277.082 241.249 277.082 264.479C277.082 287.709 295.914 306.541 319.144 306.541Z" fill="#3C354C"/>
<path d="M316.339 345.799C339.569 345.799 358.401 326.967 358.401 303.737C358.401 280.507 339.569 261.675 316.339 261.675C293.109 261.675 274.277 280.507 274.277 303.737C274.277 326.967 293.109 345.799 316.339 345.799Z" fill="#3C354C"/>
<path d="M298.112 274.294C298.112 274.294 296.243 300.466 287.831 304.204C279.418 307.943 314.002 364.961 314.002 364.961L328.023 347.201L316.807 315.421C316.807 315.421 325.219 289.249 328.958 287.38C332.697 285.51 298.112 274.294 298.112 274.294Z" fill="#FFC1C7"/>
<path opacity="0.1" d="M298.112 274.294C298.112 274.294 296.243 300.466 287.831 304.204C279.418 307.943 314.002 364.961 314.002 364.961L328.023 347.201L316.807 315.421C316.807 315.421 325.219 289.249 328.958 287.38C332.697 285.51 298.112 274.294 298.112 274.294Z" fill="black"/>
<path d="M413.081 407.957C413.081 407.957 454.208 429.455 445.796 453.758C437.384 478.06 419.624 426.651 419.624 426.651L405.604 416.37L413.081 407.957Z" fill="#FFC1C7"/>
<path d="M413.082 471.517C413.082 471.517 428.972 506.102 415.886 507.971C402.8 509.84 401.865 477.126 401.865 477.126L413.082 471.517Z" fill="#FFC1C7"/>
<path d="M344.848 372.438C345.783 372.438 353.261 375.242 353.261 375.242C353.261 375.242 381.302 426.651 392.518 436.933C403.735 447.215 419.625 472.452 416.821 474.322C414.017 476.191 393.453 489.277 391.584 485.538C389.714 481.799 382.237 467.779 377.563 464.974C372.889 462.17 349.522 431.325 342.979 428.521C336.436 425.717 321.48 380.851 321.48 380.851L344.848 372.438Z" fill="#32C08D"/>
<path opacity="0.1" d="M344.848 372.438C345.783 372.438 353.261 375.242 353.261 375.242C353.261 375.242 381.302 426.651 392.518 436.933C403.735 447.215 419.625 472.452 416.821 474.322C414.017 476.191 393.453 489.277 391.584 485.538C389.714 481.799 382.237 467.779 377.563 464.974C372.889 462.17 349.522 431.325 342.979 428.521C336.436 425.717 321.48 380.851 321.48 380.851L344.848 372.438Z" fill="black"/>
<path d="M315.873 299.998C331.101 299.998 343.447 287.653 343.447 272.424C343.447 257.196 331.101 244.85 315.873 244.85C300.644 244.85 288.299 257.196 288.299 272.424C288.299 287.653 300.644 299.998 315.873 299.998Z" fill="#FFC1C7"/>
<path d="M353.26 375.242C353.26 375.242 338.305 393.002 336.436 393.937C335.735 394.292 331.061 396.357 325.509 398.806C316.302 402.863 304.656 407.957 304.656 407.957C304.656 407.957 297.178 412.631 293.439 412.631C289.7 412.631 269.137 422.912 269.137 422.912C269.137 422.912 254.181 434.129 244.834 434.129C235.487 434.129 243.9 439.737 231.748 438.803C219.597 437.868 229.879 403.284 235.487 398.61C241.095 393.936 242.03 375.242 241.095 369.634C240.161 364.026 245.769 343.462 253.247 317.29C260.724 291.119 276.614 301.4 276.614 301.4C276.614 301.4 285.961 295.792 286.896 295.792C287.831 295.792 297.178 311.682 299.047 321.029C300.206 326.824 307.834 338.723 313.46 346.93C316.91 351.968 319.611 355.613 319.611 355.613C319.611 355.613 319.611 353.866 319.564 351.454C319.489 347.285 319.265 341.163 318.676 338.789C317.741 335.05 316.807 315.421 316.807 315.421C316.807 315.421 316.807 314.486 319.611 314.486C322.415 314.486 344.848 349.07 344.848 349.07L346.717 367.765L349.914 371.419L353.26 375.242Z" fill="#32C08D"/>
<path opacity="0.1" d="M353.261 375.242C353.261 375.242 338.306 393.002 336.436 393.937C335.735 394.292 331.062 396.357 325.51 398.806C298.571 391.974 267.735 376.644 267.735 376.644C267.735 376.644 258.855 345.332 266.333 331.311C273.811 317.29 295.309 333.18 295.309 333.18C295.309 333.18 303.497 339.508 313.461 346.93C315.443 348.407 317.49 349.93 319.565 351.454C330.407 359.427 341.783 367.456 346.438 369.634C347.288 370.027 348.466 370.634 349.915 371.419L353.261 375.242Z" fill="black"/>
<path d="M259.789 375.242C259.789 375.242 328.958 396.741 346.717 398.61C364.477 400.479 396.257 435.998 399.061 435.064C401.865 434.129 421.494 410.761 416.82 407.022C412.147 403.284 356.438 369.634 346.437 364.96C336.435 360.287 295.308 328.507 295.308 328.507C295.308 328.507 273.81 312.617 266.332 326.637C258.855 340.658 259.789 375.242 259.789 375.242Z" fill="#32C08D"/>
<path d="M295.309 479.93C295.309 479.93 284.093 471.517 276.615 473.387C269.137 475.256 259.79 480.864 260.725 493.016C261.271 500.227 262.207 507.404 263.529 514.514H264.464L267.268 497.689C267.268 497.689 275.68 501.428 277.55 507.971C279.419 514.514 302.787 527.6 308.395 522.926C314.003 518.253 302.787 512.645 302.787 512.645L295.309 479.93Z" fill="#F2F2F2"/>
<path opacity="0.1" d="M295.309 479.93C295.309 479.93 284.093 471.517 276.615 473.387C269.137 475.256 259.79 480.864 260.725 493.016C261.271 500.227 262.207 507.404 263.529 514.514H264.464L267.268 497.689C267.268 497.689 275.68 501.428 277.55 507.971C279.419 514.514 302.787 527.6 308.395 522.926C314.003 518.253 302.787 512.645 302.787 512.645L295.309 479.93Z" fill="black"/>
<path d="M315.872 487.407C315.872 487.407 396.257 478.06 392.519 463.105C388.78 448.15 360.738 431.325 360.738 431.325L314.003 440.672L283.385 473.807L295.309 479.93L315.872 487.407Z" fill="#3C354C"/>
<path opacity="0.1" d="M315.872 487.407C315.872 487.407 396.257 478.06 392.519 463.105C388.78 448.15 360.738 431.325 360.738 431.325L314.003 440.672L283.385 473.807L295.309 479.93L315.872 487.407Z" fill="black"/>
<path d="M279.419 500.493C279.419 500.493 263.529 527.6 258.856 528.535C254.182 529.469 248.574 535.078 255.117 547.229C259.04 554.486 261.576 562.41 262.595 570.596H264.464L263.529 553.772C263.529 553.772 275.681 573.401 276.615 580.878C277.55 588.356 312.134 595.834 317.742 585.552C323.351 575.27 310.265 567.792 310.265 567.792C310.265 567.792 290.636 546.294 293.44 531.339C296.244 516.383 299.048 512.645 299.048 512.645L279.419 500.493Z" fill="#F2F2F2"/>
<path d="M228.009 433.194C228.009 433.194 219.596 486.473 250.442 484.603C281.287 482.734 345.782 444.411 345.782 444.411L365.411 422.912C365.411 422.912 379.432 403.284 356.064 397.675C332.696 392.067 294.373 411.696 294.373 411.696L236.421 436.933L228.009 433.194Z" fill="#3C354C"/>
<path d="M361.673 418.239L365.411 422.913C365.411 422.913 308.394 515.449 302.786 516.383C297.178 517.318 277.549 503.297 277.549 500.493C277.549 497.689 285.026 481.799 286.896 479.93C288.765 478.06 307.459 435.064 311.198 432.26C314.937 429.455 361.673 418.239 361.673 418.239Z" fill="#3C354C"/>
<path d="M317.275 271.957C334.311 271.957 348.12 262.541 348.12 250.926C348.12 239.311 334.311 229.895 317.275 229.895C300.24 229.895 286.43 239.311 286.43 250.926C286.43 262.541 300.24 271.957 317.275 271.957Z" fill="#3C354C"/>
<path opacity="0.2" d="M881.524 272.5H608.476C605.452 272.5 603 274.952 603 277.976V289.024C603 292.048 605.452 294.5 608.476 294.5H881.524C884.548 294.5 887 292.048 887 289.024V277.976C887 274.952 884.548 272.5 881.524 272.5Z" fill="#32C08D"/>
<path opacity="0.2" d="M947.524 352.5H542.476C539.452 352.5 537 354.952 537 357.976V362.024C537 365.048 539.452 367.5 542.476 367.5H947.524C950.548 367.5 953 365.048 953 362.024V357.976C953 354.952 950.548 352.5 947.524 352.5Z" fill="#32C08D"/>
<path opacity="0.2" d="M947.524 396.5H542.476C539.452 396.5 537 398.952 537 401.976V406.024C537 409.048 539.452 411.5 542.476 411.5H947.524C950.548 411.5 953 409.048 953 406.024V401.976C953 398.952 950.548 396.5 947.524 396.5Z" fill="#32C08D"/>
<path opacity="0.2" d="M947.524 440.5H542.476C539.452 440.5 537 442.952 537 445.976V450.024C537 453.048 539.452 455.5 542.476 455.5H947.524C950.548 455.5 953 453.048 953 450.024V445.976C953 442.952 950.548 440.5 947.524 440.5Z" fill="#32C08D"/>
<path opacity="0.2" d="M947.524 484.5H542.476C539.452 484.5 537 486.952 537 489.976V494.024C537 497.048 539.452 499.5 542.476 499.5H947.524C950.548 499.5 953 497.048 953 494.024V489.976C953 486.952 950.548 484.5 947.524 484.5Z" fill="#32C08D"/>
<path d="M945.972 552.5H872.028C868.146 552.5 865 555.646 865 559.528V571.472C865 575.354 868.146 578.5 872.028 578.5H945.972C949.854 578.5 953 575.354 953 571.472V559.528C953 555.646 949.854 552.5 945.972 552.5Z" fill="#68D2FF"/>
<path d="M1053.1 506.116C1055.76 501.472 1057.14 496.202 1057.09 490.85C1057.09 477.053 1048.54 465.869 1038 465.869C1027.46 465.869 1018.92 477.053 1018.92 490.85C1018.87 496.202 1020.24 501.472 1022.9 506.116C1020.29 510.78 1018.92 516.036 1018.92 521.382C1018.92 526.728 1020.29 531.984 1022.9 536.648C1020.29 541.312 1018.92 546.569 1018.92 551.914C1018.92 557.26 1020.29 562.516 1022.9 567.18C1020.29 571.844 1018.92 577.101 1018.92 582.446C1018.92 587.792 1020.29 593.048 1022.9 597.712C1020.24 602.356 1018.87 607.626 1018.92 612.978C1018.92 626.775 1027.46 637.959 1038 637.959C1048.54 637.959 1057.09 626.775 1057.09 612.978C1057.14 607.626 1055.76 602.356 1053.1 597.712C1055.72 593.048 1057.09 587.792 1057.09 582.446C1057.09 577.101 1055.72 571.844 1053.1 567.18C1055.72 562.516 1057.09 557.26 1057.09 551.914C1057.09 546.569 1055.72 541.312 1053.1 536.648C1055.72 531.984 1057.09 526.728 1057.09 521.382C1057.09 516.036 1055.72 510.78 1053.1 506.116Z" fill="#3F3D56"/>
<path d="M1038 485.299C1048.54 485.299 1057.09 474.114 1057.09 460.318C1057.09 446.521 1048.54 435.337 1038 435.337C1027.46 435.337 1018.92 446.521 1018.92 460.318C1018.92 474.114 1027.46 485.299 1038 485.299Z" fill="#3F3D56"/>
<path d="M1038 454.767C1048.54 454.767 1057.09 443.582 1057.09 429.786C1057.09 415.989 1048.54 404.805 1038 404.805C1027.46 404.805 1018.92 415.989 1018.92 429.786C1018.92 443.582 1027.46 454.767 1038 454.767Z" fill="#3F3D56"/>
<path d="M1109.44 220.845C1112.04 217.526 1114.42 214.03 1116.54 210.384L1066.4 202.149L1120.63 202.552C1125.83 191.234 1128.67 178.973 1128.97 166.519C1129.27 154.066 1127.03 141.682 1122.38 130.126L1049.62 167.868L1116.72 118.547C1110.43 107.684 1101.98 98.2325 1091.88 90.7803C1081.78 83.328 1070.26 78.035 1058.02 75.231C1045.79 72.4269 1033.11 72.1718 1020.78 74.4817C1008.44 76.7915 996.712 81.6168 986.322 88.6569C975.933 95.6969 967.104 104.801 960.386 115.402C953.668 126.003 949.205 137.874 947.275 150.275C945.345 162.676 945.989 175.341 949.168 187.482C952.346 199.624 957.99 210.98 965.749 220.845C961.685 226.011 958.19 231.599 955.324 237.514L1020.41 271.329L951.01 248.037C946.138 262.442 944.933 277.835 947.507 292.822C950.08 307.81 956.35 321.919 965.749 333.874C955.144 347.356 948.547 363.551 946.712 380.606C944.877 397.662 947.879 414.889 955.373 430.319C962.868 445.749 974.553 458.758 989.092 467.86C1003.63 476.962 1020.44 481.789 1037.59 481.789C1054.75 481.789 1071.55 476.962 1086.09 467.86C1100.63 458.758 1112.32 445.749 1119.81 430.319C1127.31 414.889 1130.31 397.662 1128.47 380.606C1126.64 363.551 1120.04 347.356 1109.44 333.874C1122.11 317.761 1129 297.858 1129 277.359C1129 256.861 1122.11 236.957 1109.44 220.845V220.845Z" fill="#32C08D"/>
<path opacity="0.1" d="M946.188 277.359C946.156 297.863 953.049 317.777 965.749 333.873C955.144 347.356 948.547 363.551 946.712 380.606C944.877 397.662 947.879 414.889 955.373 430.319C962.868 445.749 974.553 458.758 989.092 467.86C1003.63 476.962 1020.44 481.789 1037.59 481.789C1054.75 481.789 1071.55 476.962 1086.09 467.86C1100.63 458.758 1112.32 445.749 1119.81 430.319C1127.31 414.889 1130.31 397.662 1128.47 380.606C1126.64 363.551 1120.04 347.356 1109.44 333.873C1121.69 318.321 946.188 267.1 946.188 277.359Z" fill="black"/>
</svg>
