<svg width="885" height="348" viewBox="0 0 885 348" fill="none" xmlns="http://www.w3.org/2000/svg">
<path d="M182.098 202.32H43.5402V348H0V18.125H204.548V53.9219H43.5402V166.75H182.098V202.32Z" fill="black"/>
<path d="M318.932 348H276.979V0H318.932V348Z" fill="black"/>
<path d="M455.086 348H413.133V102.859H455.086V348ZM409.731 37.8359C409.731 31.0391 411.772 25.2995 415.854 20.6172C420.087 15.9349 426.286 13.5938 434.45 13.5938C442.613 13.5938 448.812 15.9349 453.045 20.6172C457.278 25.2995 459.395 31.0391 459.395 37.8359C459.395 44.6328 457.278 50.2969 453.045 54.8281C448.812 59.3594 442.613 61.625 434.45 61.625C426.286 61.625 420.087 59.3594 415.854 54.8281C411.772 50.2969 409.731 44.6328 409.731 37.8359Z" fill="black"/>
<path d="M591.24 348H549.287V102.859H591.24V348ZM545.885 37.8359C545.885 31.0391 547.926 25.2995 552.008 20.6172C556.241 15.9349 562.44 13.5938 570.603 13.5938C578.767 13.5938 584.966 15.9349 589.199 20.6172C593.432 25.2995 595.548 31.0391 595.548 37.8359C595.548 44.6328 593.432 50.2969 589.199 54.8281C584.966 59.3594 578.767 61.625 570.603 61.625C562.44 61.625 556.241 59.3594 552.008 54.8281C547.926 50.2969 545.885 44.6328 545.885 37.8359Z" fill="black"/>
<path d="M750.298 234.492L723.992 261.906V348H682.039V0H723.992V210.477L746.442 183.516L822.865 102.859H873.888L778.417 205.266L885 348H835.791L750.298 234.492Z" fill="black"/>
<path d="M140 220H61V299L140 220Z" fill="#3FB58B"/>
</svg>
