<svg width="auto" height="auto" viewBox="0 0 97 42" fill="none" xmlns="http://www.w3.org/2000/svg">
<path d="M85.4339 26.4673C80.4898 30.1609 79.0957 36.6502 79.0957 36.6502C79.0957 36.6502 85.7177 37.1509 90.6618 33.4572C95.6059 29.7636 97 23.2742 97 23.2742C97 23.2742 90.378 22.7736 85.4339 26.4673Z" fill="#3F3D56"/>
<path d="M79.0996 36.5872C79.0996 36.5872 79.027 36.5467 78.8957 36.4661C78.791 36.4018 78.6472 36.312 78.4735 36.1973C76.9198 35.1741 72.8951 32.1647 71.2443 27.5213C69.1789 21.7076 71.6177 15.5342 71.6177 15.5342C71.6177 15.5342 76.9378 18.5233 79.1977 23.8924C79.2962 24.1236 79.3873 24.3596 79.4731 24.6001C81.2703 29.6586 79.6572 34.9893 79.2081 36.2886C79.1405 36.4832 79.0996 36.5872 79.0996 36.5872Z" fill="#68D2FF"/>
<path d="M79.1226 36.7712L79.0469 36.7163C78.9928 36.6773 73.6269 32.7372 72.2481 26.7651C70.8693 20.793 73.9654 14.9016 73.9968 14.8428L74.0409 14.7603L74.1166 14.8151C74.1707 14.8542 79.5367 18.7942 80.9154 24.7663C82.2942 30.7384 79.1982 36.6299 79.1667 36.6887L79.1226 36.7712ZM74.0974 15.0046C73.7252 15.7466 71.1322 21.2061 72.4072 26.7285C73.6821 32.2508 78.4064 36.0227 79.0662 36.5268C79.4383 35.7848 82.0314 30.3253 80.7563 24.803C79.4814 19.2806 74.7571 15.5087 74.0974 15.0046Z" fill="#3F3D56"/>
<path opacity="0.1" d="M79.2071 36.2888C79.0866 36.359 78.9812 36.418 78.8947 36.4663C78.7041 36.5703 78.5984 36.6227 78.5984 36.6227C78.5984 36.6227 78.5484 36.4724 78.4725 36.1974C78.054 34.6929 76.8556 29.4493 78.8612 24.6332C78.9667 24.3809 79.0785 24.134 79.1967 23.8926C79.2952 24.1238 79.3863 24.3598 79.4721 24.6003C81.2693 29.6587 79.6563 34.9894 79.2071 36.2888Z" fill="black"/>
<path d="M87.4969 28.1953C85.1259 33.8913 79.1728 36.8328 79.1728 36.8328C79.1728 36.8328 77.0639 30.5392 79.4349 24.8431C81.806 19.1471 87.7591 16.2056 87.7591 16.2056C87.7591 16.2056 89.8679 22.4992 87.4969 28.1953Z" fill="#32C08D"/>
<path d="M87.6393 16.4255L79.1562 36.6367L79.3067 36.6998L87.7898 16.4886L87.6393 16.4255Z" fill="#3F3D56"/>
<path d="M96.0997 38.5068C96.0997 39.2706 91.7032 39.9693 84.4346 40.5056C83.113 40.6028 81.6963 40.6946 80.1944 40.7811C78.896 40.8556 77.5356 40.9257 76.1131 40.9914C74.7344 41.0539 73.3031 41.112 71.8192 41.1657C67.1317 41.3361 61.9504 41.4585 56.4457 41.5197C55.1101 41.5343 53.7563 41.5459 52.3842 41.5543C50.956 41.5623 49.5112 41.5663 48.0498 41.5663C21.5124 41.5663 0 40.1969 0 38.5068C0 36.8167 21.5124 35.4473 48.0498 35.4473C59.4743 35.4473 69.9667 35.7014 78.2129 36.1246C78.5164 36.1406 78.8169 36.1561 79.1143 36.1712C79.1161 36.1723 79.1181 36.1728 79.1201 36.1726C89.5075 36.7341 96.0997 37.5712 96.0997 38.5068Z" fill="#3F3D56"/>
<path opacity="0.15" d="M96.0997 38.5068C96.0997 39.2706 91.7032 39.9693 84.4346 40.5056C83.113 40.6028 81.6963 40.6946 80.1944 40.7811C78.896 40.8556 77.5356 40.9257 76.1131 40.9914C74.7344 41.0539 73.3031 41.112 71.8192 41.1657C67.1317 41.3361 61.9504 41.4585 56.4457 41.5197C55.1101 41.5343 53.7563 41.5459 52.3842 41.5543C50.956 41.5623 49.5112 41.5663 48.0498 41.5663C21.5124 41.5663 0 40.1969 0 38.5068C0 36.8167 21.5124 35.4473 48.0498 35.4473C59.4743 35.4473 69.9667 35.7014 78.2129 36.1246C78.5164 36.1406 78.8169 36.1561 79.1143 36.1712C79.1161 36.1723 79.1181 36.1728 79.1201 36.1726C89.5075 36.7341 96.0997 37.5712 96.0997 38.5068Z" fill="black"/>
<path d="M92.4054 37.9681C92.4054 38.6068 88.3068 39.1908 81.5305 39.6395C80.2989 39.7202 78.9776 39.7969 77.5779 39.8695C76.3676 39.9315 75.0993 39.9899 73.7731 40.0449C72.4877 40.0979 71.1533 40.1466 69.77 40.1909C65.3996 40.3336 60.5689 40.4356 55.4371 40.487C54.1925 40.4992 52.9305 40.5087 51.651 40.5155C50.3191 40.5229 48.9722 40.5264 47.6104 40.5261C22.8701 40.5261 2.81445 39.3809 2.81445 37.9681C2.81445 36.5554 22.8701 35.4102 47.6104 35.4102C53.0809 35.4102 58.3221 35.4664 63.1683 35.5692H63.1805C67.7639 35.6663 71.994 35.8049 75.7302 35.9771C76.0134 35.9901 76.2936 36.0029 76.5708 36.0154C76.5724 36.0167 76.5745 36.0173 76.5765 36.017C78.288 36.1002 79.8892 36.1899 81.3648 36.2862C81.3811 36.287 81.3974 36.2886 81.4138 36.2895C88.2603 36.7389 92.4054 37.3254 92.4054 37.9681Z" fill="#3F3D56"/>
<path opacity="0.1" d="M81.3659 36.2858C80.7595 40.2264 76.9359 38.9058 72.3093 38.9058C67.4215 38.9058 63.4306 40.3798 63.1816 35.5688C67.765 35.6659 71.9951 35.8046 75.7313 35.9767C76.0145 35.9897 76.2947 36.0025 76.5719 36.015C76.5736 36.0163 76.5756 36.0169 76.5777 36.0167C78.2891 36.0999 79.8904 36.1896 81.3659 36.2858Z" fill="black"/>
<path d="M25.8938 35.0876C25.8938 36.5083 25.0489 37.0043 24.0065 37.0043C23.9823 37.0043 23.9582 37.004 23.9342 37.0034C23.8859 37.0024 23.838 37.0001 23.7907 36.9968C22.8499 36.9304 22.1191 36.4088 22.1191 35.0876C22.1191 33.7206 23.867 31.9955 23.9986 31.8675L23.9988 31.8673C24.0039 31.8623 24.0065 31.8599 24.0065 31.8599C24.0065 31.8599 25.8938 33.6672 25.8938 35.0876Z" fill="#32C08D"/>
<path d="M23.9383 36.7869L24.6286 35.8231L23.9365 36.8928L23.9348 37.0034C23.8865 37.0024 23.8386 37.0001 23.7913 36.9968L23.8657 35.5757L23.8651 35.5645L23.8664 35.5626L23.8735 35.4283L23.1797 34.3559L23.8756 35.3276L23.8773 35.356L23.9334 34.2823L23.3395 33.1741L23.9407 34.0939L23.9992 31.8675L23.9994 31.8599V31.8673L23.9897 33.6229L24.581 32.9269L23.9873 33.7741L23.9716 34.7356L24.5238 33.8128L23.9694 34.877L23.9607 35.4116L24.762 34.1272L23.9575 35.5981L23.9383 36.7869Z" fill="#3F3D56"/>
<path d="M63.168 34.0939C63.168 28.688 67.2604 24.3057 72.3087 24.3057C77.3569 24.3057 81.4493 28.688 81.4493 34.0939C81.4493 39.4997 77.3569 37.9276 72.3087 37.9276C67.2604 37.9276 63.168 39.4997 63.168 34.0939Z" fill="#3F3D56"/>
<path d="M12.5187 27.645H12.3555V38.6715H12.5187V27.645Z" fill="#3F3D56"/>
<path d="M12.4371 29.2045C13.2988 29.2045 13.9973 28.5064 13.9973 27.6452C13.9973 26.7841 13.2988 26.0859 12.4371 26.0859C11.5755 26.0859 10.877 26.7841 10.877 27.6452C10.877 28.5064 11.5755 29.2045 12.4371 29.2045Z" fill="#3F3D56"/>
<path d="M12.4364 34.4408C12.4364 34.4408 12.2135 29.6498 7.64453 30.2067Z" fill="#3F3D56"/>
<path d="M57.8651 29.459C57.9058 29.6029 57.9512 29.7459 57.9998 29.8879C57.7819 29.6738 57.5681 29.4539 57.3502 29.2412C57.4376 29.2684 57.5248 29.2956 57.6072 29.3278C57.697 29.3635 57.7834 29.4074 57.8651 29.459V29.459ZM56.8096 28.7441C55.5254 27.6281 54.0374 26.7641 52.7214 25.6821C53.4401 26.0355 54.1391 26.4472 54.8325 26.8421C55.6551 27.3104 56.4873 27.7605 57.3294 28.1924C57.1922 28.4072 57.0159 28.5943 56.8096 28.7441V28.7441ZM57.3589 25.9339C57.3794 25.9131 57.3999 25.8921 57.4204 25.8709C57.421 26.0295 57.4222 26.1777 57.4241 26.3123C57.309 26.2742 57.1943 26.235 57.0799 26.1949C57.1783 26.1139 57.2715 26.0267 57.3589 25.9339V25.9339ZM46.0469 28.9552C46.5761 28.3579 47.0358 27.7024 47.4172 27.0015C47.927 27.8917 48.7555 28.5336 49.4602 29.2791C48.3248 29.1294 47.1877 29.0058 46.0469 28.9552Z" fill="url(#paint0_linear)"/>
<path d="M9.57153 37.2082C9.57153 38.6289 8.72662 39.1249 7.6842 39.1249C7.66006 39.1249 7.63591 39.1246 7.61194 39.124C7.56365 39.123 7.51571 39.1207 7.46846 39.1174C6.52766 39.051 5.79688 38.5294 5.79688 37.2082C5.79688 35.8412 7.54472 34.1161 7.67639 33.9881L7.67656 33.9879C7.6816 33.9829 7.6842 33.9805 7.6842 33.9805C7.6842 33.9805 9.57153 35.7878 9.57153 37.2082Z" fill="#32C08D"/>
<path d="M7.616 38.9076L8.30631 37.9437L7.61426 39.0134L7.61253 39.124C7.56423 39.123 7.51629 39.1207 7.46904 39.1174L7.54339 37.6963L7.54287 37.6852L7.54409 37.6832L7.55121 37.5489L6.85742 36.4765L7.55329 37.4482L7.55503 37.4767L7.61114 36.4029L7.01723 35.2947L7.61843 36.2145L7.67697 33.9881L7.67714 33.9805V33.9879L7.66742 35.7435L8.25872 35.0475L7.66499 35.8947L7.64935 36.8562L8.20157 35.9334L7.64709 36.9977L7.63841 37.5322L8.43972 36.2478L7.63528 37.7187L7.616 38.9076Z" fill="#3F3D56"/>
<path d="M10.5271 25.9048C10.9778 25.9048 11.3432 25.5396 11.3432 25.0891C11.3432 24.6386 10.9778 24.2734 10.5271 24.2734C10.0763 24.2734 9.71094 24.6386 9.71094 25.0891C9.71094 25.5396 10.0763 25.9048 10.5271 25.9048Z" fill="#32C08D"/>
<path d="M63.0049 13.6723C63.0049 13.6723 65.9656 13.0172 66.2921 15.6274C66.6185 18.2376 64.7197 18.7302 64.7197 18.7302L63.5172 19.0532L58.8652 17.8297L59.5181 15.9536L63.0049 13.6723Z" fill="#2F2E41"/>
<path d="M61.9385 13.8163C64.1481 13.8163 65.9394 12.026 65.9394 9.8176C65.9394 7.60915 64.1481 5.81885 61.9385 5.81885C59.7288 5.81885 57.9375 7.60915 57.9375 9.8176C57.9375 12.026 59.7288 13.8163 61.9385 13.8163Z" fill="#2F2E41"/>
<path d="M45.7539 15.4858L47.1058 15.74L51.702 22.0949L49.6743 22.349L45.7539 15.4858Z" fill="#2F2E41"/>
<path d="M28.2168 34.6937C28.436 35.4147 28.7059 36.1193 29.0247 36.8021C29.9408 36.6105 30.8421 36.3538 31.7217 36.034C31.7489 36.0242 31.2173 35.3293 31.1615 35.2725C30.9509 35.0583 30.6782 34.8081 30.3998 34.687C30.1191 34.5649 29.7733 34.6581 29.4727 34.6734C29.0545 34.6948 28.6358 34.7016 28.2168 34.6937Z" fill="#FBBEBE"/>
<path d="M30.4028 35.7851C29.9446 35.6418 29.6662 35.181 29.4798 34.7366C29.2934 34.2922 29.1431 33.8076 28.7896 33.4814C28.6542 33.4879 28.5451 33.5979 28.4781 33.7164C28.4111 33.8348 28.3712 33.9684 28.2937 34.0802C28.1463 34.2932 27.8872 34.3961 27.7018 34.5766C27.5075 34.7658 27.4013 35.0336 27.2001 35.2156C26.9475 35.4441 26.5903 35.5008 26.2589 35.5764C25.7462 35.6934 25.251 35.8769 24.7859 36.1222C24.6146 36.2254 24.4313 36.3075 24.2402 36.3666C24.0299 36.407 23.8146 36.4142 23.6021 36.3879L22.1365 36.2835C22.0061 36.2667 21.8738 36.2725 21.7453 36.3006C21.444 36.3852 21.257 36.7212 21.2791 37.0348C21.3012 37.3484 21.4964 37.6293 21.7429 37.8229C21.998 38.0053 22.2794 38.1479 22.5775 38.2455C23.8542 38.7272 25.1685 39.1024 26.5071 39.3674L26.5078 39.6573C27.4385 40.1147 28.4618 40.3529 29.4991 40.3534C29.5758 40.3592 29.6527 40.3458 29.723 40.3146C29.8258 40.2588 29.8734 40.1387 29.9115 40.0277C30.2631 39 30.4689 37.9282 30.5228 36.8434C30.5488 36.5684 30.5274 36.291 30.4597 36.0232C30.3798 35.7595 30.6547 35.8703 30.4004 35.7671" fill="#2F2E41"/>
<path d="M58.5115 30.2631C54.1664 30.5232 49.8719 29.252 45.5212 29.1162C44.9803 29.0993 44.4336 29.1005 43.9054 29.2191C43.3467 29.3445 42.8259 29.5971 42.3064 29.8387C39.973 30.9238 37.559 31.8225 35.148 32.72L32.3784 33.751C31.825 33.9571 31.2515 34.1663 30.6624 34.1303C30.3983 34.1142 30.0741 34.0742 29.9255 34.2942C29.475 34.9614 29.6879 35.9415 29.9856 36.6903C30.0822 36.9333 30.2456 37.1955 30.5046 37.2232C30.6869 37.2426 30.8564 37.1372 31.0336 37.0897C31.5377 36.9548 32.0403 37.2937 32.5592 37.3489C33.2001 37.417 33.7953 37.0521 34.4003 36.8287C35.4037 36.458 36.5008 36.4697 37.5555 36.2941C39.3239 35.9998 40.963 35.1791 42.4951 34.244C43.0786 33.888 43.6689 33.5066 44.3391 33.3763C45.1098 33.2266 45.9013 33.425 46.6568 33.6387C48.4585 34.1482 50.2321 34.7518 51.9704 35.4471C52.8857 35.8131 53.7944 36.2057 54.7468 36.4589C56.8068 37.001 58.9859 36.874 60.9689 36.0963C61.6644 35.8216 62.4201 35.336 62.4599 34.5861C62.4826 34.1585 62.1509 33.7818 61.9292 33.4161C61.787 33.1816 61.6447 32.947 61.4898 32.7208C60.7406 31.626 59.8313 30.1842 58.5115 30.2631Z" fill="#2F2E41"/>
<path opacity="0.1" d="M58.5115 30.2631C54.1664 30.5232 49.8719 29.252 45.5212 29.1162C44.9803 29.0993 44.4336 29.1005 43.9054 29.2191C43.3467 29.3445 42.8259 29.5971 42.3064 29.8387C39.973 30.9238 37.559 31.8225 35.148 32.72L32.3784 33.751C31.825 33.9571 31.2515 34.1663 30.6624 34.1303C30.3983 34.1142 30.0741 34.0742 29.9255 34.2942C29.475 34.9614 29.6879 35.9415 29.9856 36.6903C30.0822 36.9333 30.2456 37.1955 30.5046 37.2232C30.6869 37.2426 30.8564 37.1372 31.0336 37.0897C31.5377 36.9548 32.0403 37.2937 32.5592 37.3489C33.2001 37.417 33.7953 37.0521 34.4003 36.8287C35.4037 36.458 36.5008 36.4697 37.5555 36.2941C39.3239 35.9998 40.963 35.1791 42.4951 34.244C43.0786 33.888 43.6689 33.5066 44.3391 33.3763C45.1098 33.2266 45.9013 33.425 46.6568 33.6387C48.4585 34.1482 50.2321 34.7518 51.9704 35.4471C52.8857 35.8131 53.7944 36.2057 54.7468 36.4589C56.8068 37.001 58.9859 36.874 60.9689 36.0963C61.6644 35.8216 62.4201 35.336 62.4599 34.5861C62.4826 34.1585 62.1509 33.7818 61.9292 33.4161C61.787 33.1816 61.6447 32.947 61.4898 32.7208C60.7406 31.626 59.8313 30.1842 58.5115 30.2631Z" fill="black"/>
<path d="M36.5566 34.9052C37.2368 35.1372 37.9229 35.3505 38.615 35.5451C39.0024 34.9094 39.7271 34.4671 39.8923 33.7403C39.9025 33.7087 39.9025 33.6747 39.8924 33.643C39.8747 33.6119 39.8474 33.5874 39.8145 33.5733C39.3188 33.2988 38.7683 33.1376 38.2027 33.1013C37.7561 33.0731 37.5523 33.5392 37.3498 33.8667C37.2679 33.9993 36.7386 34.9673 36.5566 34.9052Z" fill="#FBBEBE"/>
<path d="M37.5117 34.4411C37.11 34.357 36.7169 34.1412 36.5118 33.7841C36.4158 33.6168 36.3136 33.3912 36.1217 33.4038C35.9437 33.4156 35.8619 33.6279 35.8218 33.8026C35.6717 34.457 35.5242 35.1165 35.2608 35.7337C34.9975 36.3509 34.6078 36.9303 34.0583 37.3123C33.8062 37.4875 33.5252 37.6184 33.2789 37.8016C33.0575 37.9662 32.8645 38.1726 32.62 38.2999C32.4564 38.3748 32.2875 38.4378 32.1148 38.4882C31.8606 38.5767 31.6177 38.6948 31.3912 38.8402C31.192 38.9559 31.0231 39.1171 30.8984 39.3107C30.8372 39.4084 30.8014 39.5198 30.7943 39.6348C30.7872 39.7498 30.809 39.8648 30.8578 39.9692C30.9103 40.0552 30.9804 40.1291 31.0636 40.186C31.1467 40.2429 31.241 40.2815 31.3401 40.2994C31.5381 40.3335 31.7401 40.3386 31.9396 40.3144C32.7318 40.256 33.5231 40.1855 34.3143 40.115C34.6491 40.0935 34.9818 40.0472 35.3097 39.9767C35.483 39.9349 35.6529 39.8796 35.8255 39.8351C36.1215 39.7588 36.4248 39.7147 36.7303 39.7034C36.819 39.6959 36.9084 39.704 36.9942 39.7275C37.1775 39.7873 37.3076 39.9696 37.4968 40.0066C37.6182 40.0182 37.7406 40.0018 37.8547 39.9588C38.4248 39.803 39.0238 39.8072 39.6138 39.7753C39.8737 39.7613 40.178 39.712 40.2972 39.4794C40.446 39.1894 40.1994 38.8652 40.1011 38.5542C40.0521 38.3555 40.0247 38.1521 40.0196 37.9475C39.9743 37.4419 39.8257 36.951 39.5832 36.505C39.3816 36.1349 39.1062 35.7257 39.2479 35.3285C39.296 35.1937 39.3917 35.0682 39.3821 34.9254C39.3404 34.2979 37.8759 34.5174 37.5117 34.4411Z" fill="#2F2E41"/>
<path d="M51.9957 23.2961C51.2257 22.957 50.6089 22.3447 50.2644 21.5774C50.1918 21.4125 50.1322 21.2403 50.0623 21.0739C49.8345 20.5209 49.4801 20.0291 49.0276 19.6378C48.9145 19.5418 48.7818 19.4503 48.6435 19.4754C48.5109 19.4995 48.4065 19.6306 48.361 19.7777C48.3221 19.9292 48.3124 20.0867 48.3323 20.2418C48.371 20.6073 48.4339 20.9699 48.5206 21.3272L48.7312 22.2861C48.7573 22.4336 48.8013 22.5774 48.8623 22.7142C48.9531 22.8756 49.0729 23.0188 49.2157 23.1368C49.4081 23.3139 49.6036 23.4862 49.8021 23.6538C50.078 23.9184 50.4377 24.0783 50.819 24.1057C51.6819 24.2657 52.5595 24.496 53.2876 25.0588C53.2795 25.0526 53.2845 24.4156 53.2719 24.3426C53.2386 24.1496 53.2126 23.9585 53.087 23.8281C52.8047 23.535 52.3396 23.4489 51.9957 23.2961Z" fill="#FBBEBE"/>
<path opacity="0.1" d="M51.9957 23.2961C51.2257 22.957 50.6089 22.3447 50.2644 21.5774C50.1918 21.4125 50.1322 21.2403 50.0623 21.0739C49.8345 20.5209 49.4801 20.0291 49.0276 19.6378C48.9145 19.5418 48.7818 19.4503 48.6435 19.4754C48.5109 19.4995 48.4065 19.6306 48.361 19.7777C48.3221 19.9292 48.3124 20.0867 48.3323 20.2418C48.371 20.6073 48.4339 20.9699 48.5206 21.3272L48.7312 22.2861C48.7573 22.4336 48.8013 22.5774 48.8623 22.7142C48.9531 22.8756 49.0729 23.0188 49.2157 23.1368C49.4081 23.3139 49.6036 23.4862 49.8021 23.6538C50.078 23.9184 50.4377 24.0783 50.819 24.1057C51.6819 24.2657 52.5595 24.496 53.2876 25.0588C53.2795 25.0526 53.2845 24.4156 53.2719 24.3426C53.2386 24.1496 53.2126 23.9585 53.087 23.8281C52.8047 23.535 52.3396 23.4489 51.9957 23.2961Z" fill="black"/>
<path d="M60.8439 15.9561C61.4275 15.9561 61.9007 15.4806 61.9007 14.8941C61.9007 14.3075 61.4275 13.832 60.8439 13.832C60.2602 13.832 59.7871 14.3075 59.7871 14.8941C59.7871 15.4806 60.2602 15.9561 60.8439 15.9561Z" fill="#2F2E41"/>
<path d="M60.1902 14.2522C59.9033 14.2204 59.5847 14.1969 59.3548 14.3723C59.2329 14.48 59.1354 14.6127 59.069 14.7612C58.848 15.1759 58.6302 15.5983 58.519 16.0552C58.4246 16.4428 58.409 16.8481 58.2922 17.2295C58.0754 17.937 57.5202 18.5342 57.4568 19.2716C57.4284 19.6017 57.4837 19.9881 57.2428 20.2141C57.1833 20.2642 57.1198 20.3092 57.0529 20.3488C56.8858 20.4606 56.7441 20.6062 56.6369 20.7762C56.5467 20.9195 56.4773 21.084 56.3415 21.1845C56.1266 21.3437 55.7698 21.3275 55.6639 21.5738C55.555 21.8268 55.8313 22.1085 55.7673 22.3766C55.7152 22.5949 55.4716 22.695 55.3039 22.8434C55.089 23.0334 54.9908 23.3202 54.9012 23.5935C54.5477 23.6603 54.1839 23.6499 53.8348 23.5629C53.4857 23.4759 53.1596 23.3144 52.8789 23.0894C53.1739 23.8156 53.1803 24.6171 53.1931 25.4013C53.1973 25.6558 53.1893 25.9413 53.0076 26.1185C53.8489 26.1365 54.6695 26.3643 55.4905 26.5497C55.8494 26.6308 56.2389 26.7012 56.5735 26.5478C56.7613 26.4473 56.9293 26.3137 57.0695 26.1535C57.5162 25.7008 57.9847 25.207 58.094 24.579C58.1552 24.2271 58.0959 23.866 58.1122 23.5092C58.1322 23.0671 58.2675 22.6399 58.3833 22.2129C58.6202 21.3389 58.7791 20.4456 58.8579 19.5435C58.9065 18.9869 59.3876 18.5388 59.6408 18.0413C60.1189 17.1022 60.6075 16.124 60.6435 15.0697C60.6555 14.7171 60.5391 14.2909 60.1902 14.2522Z" fill="#2F2E41"/>
<path opacity="0.1" d="M60.1902 14.2522C59.9033 14.2204 59.5847 14.1969 59.3548 14.3723C59.2329 14.48 59.1354 14.6127 59.069 14.7612C58.848 15.1759 58.6302 15.5983 58.519 16.0552C58.4246 16.4428 58.409 16.8481 58.2922 17.2295C58.0754 17.937 57.5202 18.5342 57.4568 19.2716C57.4284 19.6017 57.4837 19.9881 57.2428 20.2141C57.1833 20.2642 57.1198 20.3092 57.0529 20.3488C56.8858 20.4606 56.7441 20.6062 56.6369 20.7762C56.5467 20.9195 56.4773 21.084 56.3415 21.1845C56.1266 21.3437 55.7698 21.3275 55.6639 21.5738C55.555 21.8268 55.8313 22.1085 55.7673 22.3766C55.7152 22.5949 55.4716 22.695 55.3039 22.8434C55.089 23.0334 54.9908 23.3202 54.9012 23.5935C54.5477 23.6603 54.1839 23.6499 53.8348 23.5629C53.4857 23.4759 53.1596 23.3144 52.8789 23.0894C53.1739 23.8156 53.1803 24.6171 53.1931 25.4013C53.1973 25.6558 53.1893 25.9413 53.0076 26.1185C53.8489 26.1365 54.6695 26.3643 55.4905 26.5497C55.8494 26.6308 56.2389 26.7012 56.5735 26.5478C56.7613 26.4473 56.9293 26.3137 57.0695 26.1535C57.5162 25.7008 57.9847 25.207 58.094 24.579C58.1552 24.2271 58.0959 23.866 58.1122 23.5092C58.1322 23.0671 58.2675 22.6399 58.3833 22.2129C58.6202 21.3389 58.7791 20.4456 58.8579 19.5435C58.9065 18.9869 59.3876 18.5388 59.6408 18.0413C60.1189 17.1022 60.6075 16.124 60.6435 15.0697C60.6555 14.7171 60.5391 14.2909 60.1902 14.2522Z" fill="black"/>
<path d="M59.2005 31.1776C58.2955 30.7473 57.6334 29.9449 56.9016 29.2582C55.5048 27.9473 53.7966 27.0193 52.3279 25.7902C51.3544 24.9755 50.4837 24.0268 49.4139 23.3448C48.4717 22.7452 47.4037 22.3711 46.293 22.2518C46.1658 22.2301 46.0353 22.2366 45.9109 22.2709C45.7705 22.3329 45.6483 22.4296 45.5556 22.5518C45.0817 23.0863 44.6604 23.6652 44.2977 24.2806C42.4361 27.439 39.7919 30.0946 37.6012 33.0321C37.5312 33.1011 37.4897 33.1939 37.4849 33.2921C37.48 33.3903 37.5122 33.4867 37.575 33.5623L38.0206 34.4351C38.27 34.9235 38.6695 35.4924 39.2071 35.3953C39.4528 35.3509 39.6485 35.1703 39.8294 34.9975L41.83 33.0862L43.9275 31.0823C45.1564 29.9082 46.4064 28.7068 47.2075 27.2049C47.8337 28.2902 48.9445 29.0006 49.7067 29.9941C49.9966 30.3721 50.2334 30.7876 50.4922 31.1877C50.9071 31.829 51.3788 32.4309 51.8499 33.0318L54.2558 36.1011C54.5839 36.5197 54.9212 36.9466 55.3699 37.2305C55.9397 37.5911 56.6327 37.6861 57.3034 37.7461C58.2073 37.827 59.1147 37.8598 60.0221 37.8443C60.7138 37.8326 61.4272 37.7872 62.0479 37.4801C62.6686 37.1731 63.1785 36.5428 63.1463 35.8483C63.1295 35.4871 62.9724 35.1484 62.7995 34.8313C61.94 33.2553 60.8169 31.9462 59.2005 31.1776Z" fill="#2F2E41"/>
<path d="M61.4945 16.4464C61.9435 16.4464 62.3075 16.0806 62.3075 15.6294C62.3075 15.1783 61.9435 14.8125 61.4945 14.8125C61.0456 14.8125 60.6816 15.1783 60.6816 15.6294C60.6816 16.0806 61.0456 16.4464 61.4945 16.4464Z" fill="#2F2E41"/>
<path d="M61.3148 15.0154C61.513 15.3651 61.5131 15.8004 61.4041 16.1877C61.295 16.5749 61.0868 16.9252 60.8808 17.2703C60.6781 17.61 60.4731 17.9528 60.2012 18.2395C61.4559 18.2995 62.6723 17.8076 63.7796 17.2115C64.6705 16.732 65.5594 16.1401 66.0349 15.2439C65.7568 15.3274 65.4504 15.245 65.2043 15.0905C64.9653 14.924 64.751 14.7245 64.5679 14.4981L63.9379 13.7898C63.79 13.6356 63.66 13.4651 63.5505 13.2815C63.4141 13.0305 63.3562 12.7443 63.3842 12.46C63.1339 12.7217 62.8542 12.9537 62.5506 13.1513C62.1007 13.444 61.6047 13.6563 61.1538 13.9472C60.9939 14.0504 60.6384 14.2164 60.7299 14.4252C60.8191 14.6289 61.188 14.7916 61.3148 15.0154Z" fill="#FBBEBE"/>
<path opacity="0.1" d="M61.3148 15.0154C61.513 15.3651 61.5131 15.8004 61.4041 16.1877C61.295 16.5749 61.0868 16.9252 60.8808 17.2703C60.6781 17.61 60.4731 17.9528 60.2012 18.2395C61.4559 18.2995 62.6723 17.8076 63.7796 17.2115C64.6705 16.732 65.5594 16.1401 66.0349 15.2439C65.7568 15.3274 65.4504 15.245 65.2043 15.0905C64.9653 14.924 64.751 14.7245 64.5679 14.4981L63.9379 13.7898C63.79 13.6356 63.66 13.4651 63.5505 13.2815C63.4141 13.0305 63.3562 12.7443 63.3842 12.46C63.1339 12.7217 62.8542 12.9537 62.5506 13.1513C62.1007 13.444 61.6047 13.6563 61.1538 13.9472C60.9939 14.0504 60.6384 14.2164 60.7299 14.4252C60.8191 14.6289 61.188 14.7916 61.3148 15.0154Z" fill="black"/>
<path d="M61.3325 15.1393C61.0967 15.5356 61.0461 16.0035 61.3325 16.3647C61.3681 16.4096 61.5005 16.6885 61.5577 16.6911C61.613 16.6865 61.6644 16.6606 61.7009 16.6187C62.0056 16.3403 62.2288 15.9852 62.4965 15.6707C62.7643 15.3562 63.1019 15.0696 63.5089 15.0063C64.0001 14.9298 64.4744 15.1899 64.9042 15.4409C65.0828 15.5452 65.2681 15.6557 65.3805 15.8298C65.471 15.9934 65.5245 16.1748 65.5369 16.3612C65.6854 17.4792 65.6821 18.6112 65.6786 19.7391C65.6761 20.5544 65.673 21.3754 65.5187 22.1758C65.4389 22.5895 65.3191 22.9956 65.2625 23.4131C65.2209 23.7816 65.204 24.1525 65.212 24.5233L65.2108 26.0755C65.2004 26.3605 65.2206 26.6459 65.271 26.9266C65.3448 27.2668 65.5058 27.5808 65.6135 27.9116C65.7244 28.292 65.8004 28.6816 65.8404 29.0758L66.0529 30.6831C66.1198 31.1893 66.1693 31.7431 65.8631 32.1505C65.7246 32.3348 65.5427 32.4822 65.4023 32.665C64.8765 33.3492 65.0452 34.3256 64.8259 35.1615C64.6528 35.7737 64.2971 36.3186 63.8063 36.7236C63.4306 37.0427 62.9454 37.2937 62.4617 37.2039C61.8087 37.0827 61.4165 36.4022 61.2385 35.7593C61.0605 35.1164 60.9955 34.4166 60.6098 33.8734C60.2949 33.4299 59.8069 33.151 59.3656 32.8344C58.9244 32.5178 58.4932 32.1096 58.3972 31.5734C58.3552 31.3392 58.3813 31.098 58.3565 30.8613C58.3213 30.5615 58.2063 30.2765 58.0233 30.0364C57.8403 29.7962 57.596 29.6096 57.3162 29.496C56.9819 29.3661 56.5691 29.3197 56.3809 29.0132C56.8669 28.7394 57.1895 28.2336 57.3594 27.7004C57.5294 27.1672 57.5641 26.6014 57.5975 26.0425L57.7091 24.1748C57.759 23.3401 57.7817 22.5128 58.1495 21.7627C58.3139 21.4274 58.5185 21.1135 58.6896 20.7816C58.916 20.316 59.1094 19.8349 59.2682 19.3421C59.5348 18.5768 59.8015 17.8113 60.0392 17.0364C60.1524 16.6672 60.2612 16.2909 60.4631 15.962C60.665 15.6332 60.9546 15.2103 61.3325 15.1393Z" fill="#32C08D"/>
<path d="M57.1831 27.2734L57.6774 27.2913L57.7827 26.5443C57.7966 26.3949 57.8318 26.2483 57.8874 26.1089C57.9689 25.9615 58.0641 25.8221 58.1717 25.6925C58.6584 25.0053 58.623 24.0929 58.7435 23.2581C58.9043 22.1447 59.3697 21.1024 59.83 20.0769L60.7899 17.9385C60.9814 17.5754 61.073 17.1681 61.0553 16.7581C61.0638 16.4275 61.1618 15.2247 61.1703 14.8941C61.1735 14.7718 60.9005 14.8398 60.8452 14.7308C60.7248 14.4933 60.5601 15.1372 60.3352 15.2785C60.1104 15.4197 59.9863 15.6756 59.8909 15.9242C59.684 16.4629 59.5575 17.0294 59.3648 17.5733C59.1721 18.1173 58.9024 18.6517 58.4687 19.0304C58.2716 19.2025 58.0445 19.339 57.8584 19.523C57.2612 20.1132 57.203 21.0453 57.182 21.8868C57.1695 22.3871 57.0728 27.2734 57.1831 27.2734Z" fill="#2F2E41"/>
<path d="M64.3013 14.2476C63.821 14.4363 63.5577 14.9569 63.4227 15.4571C63.2877 15.9573 63.2327 16.4904 62.9747 16.9392C62.3717 17.9882 60.8341 18.2939 60.4086 19.4274C60.2694 19.7983 60.2754 20.2053 60.2379 20.5999C60.1608 21.4121 59.8935 22.1968 59.8146 23.0089C59.7534 23.638 59.8062 24.272 59.859 24.9019L60.3964 31.3079C60.474 32.2332 60.4721 33.2272 60.2355 34.1248C60.7795 34.2309 61.3452 34.0889 61.85 33.8589C62.3548 33.6289 62.8155 33.3131 63.3014 33.0452C64.1369 32.5845 65.0582 32.2581 65.7898 31.6445C65.9223 31.5414 66.0357 31.4161 66.1251 31.2741C66.2717 31.0209 66.2837 30.7145 66.3535 30.43C66.4168 30.203 66.4973 29.9812 66.5944 29.7665C66.8621 29.1209 67.0955 28.4616 67.2934 27.7914C67.4294 27.3466 67.5368 26.8936 67.6149 26.4351C67.6735 26.07 67.7052 25.7011 67.7368 25.3326C67.7758 24.7556 67.8905 24.1863 68.078 23.6393C68.5454 22.3347 68.8101 20.9663 68.8628 19.5816C68.8787 19.3816 68.8651 19.1804 68.8224 18.9843C68.7588 18.7411 68.6152 18.5286 68.4973 18.3068C68.274 17.8863 68.1399 17.4236 67.9292 16.9967C67.4529 16.032 66.6118 15.3005 65.7308 14.6875C65.2981 14.3864 64.7915 14.055 64.3013 14.2476Z" fill="#2F2E41"/>
<path d="M53.0662 24.6976C52.6943 24.4812 52.3225 24.2481 52.0426 23.9204C51.9085 23.7634 51.7979 23.5872 51.6615 23.4321C51.3299 23.0549 50.86 22.821 50.3741 22.6988C49.8883 22.5765 49.383 22.5579 48.8822 22.5537C48.5472 22.5509 48.2039 22.5557 47.8902 22.6741C47.5766 22.7924 47.2937 23.0476 47.2331 23.3788C47.1601 23.7772 47.4206 24.1655 47.7334 24.4211C48.0243 24.6585 48.3667 24.8246 48.7333 24.9062C49.0323 24.9586 49.3341 24.9939 49.6372 25.0121C51.4167 25.1983 53.0042 26.1663 54.5635 27.0477C55.9331 27.8219 57.3292 28.5456 58.752 29.219C58.8085 28.7931 58.8319 28.3635 58.8222 27.934C58.815 27.6133 58.7992 27.1243 58.496 26.936C58.1428 26.7166 57.5613 26.6662 57.1629 26.5356C56.246 26.2352 55.3505 25.8732 54.4825 25.452C54.0013 25.2185 53.5292 24.967 53.0662 24.6976Z" fill="#FBBEBE"/>
<path d="M60.8442 14.649C62.5951 14.649 64.0145 13.2226 64.0145 11.4629C64.0145 9.70331 62.5951 8.27686 60.8442 8.27686C59.0932 8.27686 57.6738 9.70331 57.6738 11.4629C57.6738 13.2226 59.0932 14.649 60.8442 14.649Z" fill="#FBBEBE"/>
<path d="M65.2068 17.8595C64.9237 18.1895 64.7819 18.6146 64.5917 19.0061C64.2002 19.8119 63.5862 20.5034 63.2787 21.3451C62.9543 22.2331 62.9652 23.2893 62.3293 23.9868C62.2188 24.1081 62.0853 24.2251 62.0533 24.3864C62.0343 24.4821 62.0541 24.5846 62.021 24.6764C61.9299 24.9298 61.5149 24.9426 61.4374 25.2005C61.4148 25.276 61.4275 25.3596 61.3995 25.4332C61.3359 25.6 61.1154 25.6255 60.9681 25.7254C60.6603 25.9341 60.7224 26.4192 60.5028 26.7199C60.329 26.9578 60.0015 27.0376 59.7106 26.9972C59.4197 26.9569 59.1532 26.8177 58.8883 26.6904C58.7972 26.6391 58.6965 26.6075 58.5925 26.5975C58.4697 26.6017 58.3508 26.6423 58.2511 26.7141C57.6654 27.0862 57.3905 27.8234 57.3946 28.5197C57.3986 29.216 57.638 29.8869 57.8832 30.5382C57.9166 30.6481 57.9715 30.7503 58.0448 30.8389C58.2389 31.0441 58.5771 31.0109 58.8349 30.8968C59.0928 30.7826 59.327 30.603 59.6044 30.5528C60.0949 30.464 60.5744 30.8009 61.0721 30.7732C61.4367 30.7529 61.7594 30.541 62.0623 30.336C62.5459 30.0089 63.0383 29.6735 63.3938 29.2092C63.6115 28.9249 63.771 28.6009 63.9608 28.2971C64.2048 27.9243 64.4722 27.5673 64.7614 27.2283L66.5895 24.9919C67.0288 24.5139 67.3312 23.9266 67.4651 23.2916C67.6389 22.6956 67.8139 22.0927 67.844 21.4723C67.8687 20.9617 67.7946 20.4518 67.7112 19.9474C67.6292 19.451 67.5358 18.949 67.3176 18.496C66.9204 17.6716 65.9535 16.9894 65.2068 17.8595Z" fill="#2F2E41"/>
<path d="M66.2724 8.55121C68.4821 8.55121 70.2734 6.76091 70.2734 4.55246C70.2734 2.34401 68.4821 0.553711 66.2724 0.553711C64.0628 0.553711 62.2715 2.34401 62.2715 4.55246C62.2715 6.76091 64.0628 8.55121 66.2724 8.55121Z" fill="#2F2E41"/>
<path d="M69.7235 7.86356C69.2056 8.23763 68.6057 8.48232 67.9738 8.57714C67.3419 8.67197 66.6965 8.61417 66.0916 8.4086C65.4867 8.20302 64.9398 7.85564 64.4967 7.39552C64.0537 6.93539 63.7273 6.37591 63.5449 5.76388C63.6139 6.31236 63.796 6.84058 64.0795 7.3152C64.3631 7.78982 64.7421 8.20052 65.1925 8.52137C65.6429 8.84223 66.1549 9.06627 66.6963 9.17936C67.2377 9.29244 67.7967 9.29211 68.338 9.17838C68.8793 9.06466 69.3911 8.84001 69.8411 8.51862C70.2911 8.19723 70.6696 7.78608 70.9526 7.31112C71.2356 6.83617 71.417 6.30773 71.4853 5.75917C71.5537 5.21061 71.5075 4.65385 71.3497 4.12402C71.4393 4.83584 71.3356 5.55864 71.0495 6.2166C70.7634 6.87457 70.3053 7.44345 69.7235 7.86356V7.86356Z" fill="#2F2E41"/>
<path d="M63.0044 13.4161C64.6248 13.4161 65.9384 12.1032 65.9384 10.4837C65.9384 8.86416 64.6248 7.55127 63.0044 7.55127C61.3839 7.55127 60.0703 8.86416 60.0703 10.4837C60.0703 12.1032 61.3839 13.4161 63.0044 13.4161Z" fill="#2F2E41"/>
<path d="M60.5381 11.417C61.9744 11.417 63.1387 10.5069 63.1387 9.38426C63.1387 8.26163 61.9744 7.35156 60.5381 7.35156C59.1018 7.35156 57.9375 8.26163 57.9375 9.38426C57.9375 10.5069 59.1018 11.417 60.5381 11.417Z" fill="#2F2E41"/>
<path d="M61.5362 13.043C61.7111 12.9009 61.6799 12.5732 61.4666 12.3111C61.2534 12.049 60.9387 11.9517 60.7639 12.0938C60.589 12.2359 60.6202 12.5636 60.8334 12.8257C61.0467 13.0878 61.3614 13.1851 61.5362 13.043Z" fill="#FBBEBE"/>
<path d="M58.2942 38.5134C58.2942 39.9341 57.4493 40.4301 56.4069 40.4301C56.3827 40.4301 56.3586 40.4297 56.3346 40.4292C56.2863 40.4282 56.2384 40.4259 56.1911 40.4226C55.2503 40.3561 54.5195 39.8346 54.5195 38.5134C54.5195 37.1464 56.2674 35.4212 56.399 35.2933L56.3992 35.2931C56.4043 35.2881 56.4069 35.2856 56.4069 35.2856C56.4069 35.2856 58.2942 37.0929 58.2942 38.5134Z" fill="#32C08D"/>
<path d="M56.3387 40.2127L57.029 39.2488L56.3369 40.3186L56.3352 40.4292C56.2869 40.4282 56.239 40.4259 56.1917 40.4226L56.2661 39.0014L56.2655 38.9903L56.2667 38.9884L56.2739 38.854L55.5801 37.7817L56.276 38.7534L56.2777 38.7818L56.3338 37.708L55.7399 36.5999L56.3411 37.5197L56.3996 35.2933L56.3998 35.2856V35.2931L56.3901 37.0487L56.9814 36.3527L56.3876 37.1999L56.372 38.1613L56.9242 37.2386L56.3698 38.3028L56.3611 38.8374L57.1624 37.553L56.3579 39.0238L56.3387 40.2127Z" fill="#3F3D56"/>
<defs>
<linearGradient id="paint0_linear" x1="52.0233" y1="29.8879" x2="52.0233" y2="25.6821" gradientUnits="userSpaceOnUse">
<stop stop-color="#808080" stop-opacity="0.25"/>
<stop offset="0.53514" stop-color="#808080" stop-opacity="0.12"/>
<stop offset="1" stop-color="#808080" stop-opacity="0.1"/>
</linearGradient>
</defs>
</svg>
