<svg width="130" height="125" viewBox="0 0 130 125" fill="none" xmlns="http://www.w3.org/2000/svg">
<g filter="url(#filter0_d)">
<path d="M35.4623 28.3066C36.4247 21.951 41.8876 17.2529 48.3157 17.2529H88.6519C95.0344 17.2529 100.473 21.8864 101.487 28.1879L111.491 90.3699C112.762 98.2718 106.66 105.435 98.6562 105.435H38.8999C30.9448 105.435 24.8554 98.354 26.0464 90.4885L35.4623 28.3066Z" fill="white"/>
</g>
<path fill-rule="evenodd" clip-rule="evenodd" d="M78.2421 12.4606C78.2421 12.4605 78.2421 12.4605 78.2421 12.4605C78.2421 7.46136 73.7674 3 67.7224 3C61.6773 3 57.2026 7.46136 57.2026 12.4605C57.2026 12.4605 57.2026 12.4605 57.2026 12.4606H54.2026C54.2026 12.4605 54.2026 12.4605 54.2026 12.4605C54.2026 5.57875 60.2556 0 67.7224 0C75.1891 0 81.2421 5.57875 81.2421 12.4605C81.2421 12.4605 81.2421 12.4605 81.2421 12.4606H78.2421Z" fill="black"/>
<path fill-rule="evenodd" clip-rule="evenodd" d="M60.5946 81.8163C58.3524 82.9363 55.1077 83.3451 51.5814 82.7568C47.1975 82.0255 43.5299 79.9451 41.814 77.5025L3.74435 95.3146C-1.85451 97.9342 -0.0510596 107.731 6.03199 107.742L61.1791 107.84C64.9908 107.846 67.5711 103.454 66.2189 99.2598L60.5946 81.8163Z" fill="black"/>
<path d="M24.7569 83.5898L25.5499 83.6283L32.3681 96.0424L31.8562 96.4277L24.7569 83.5898Z" fill="white"/>
<path d="M29.649 81.8976L30.442 81.9362L37.2602 94.3503L36.7483 94.7356L29.649 81.8976Z" fill="white"/>
<path d="M33.7173 79.9246L34.5104 79.9632L41.3286 92.3772L40.8166 92.7626L33.7173 79.9246Z" fill="white"/>
<ellipse cx="69" cy="48.5" rx="8" ry="8.5" fill="#3FB58B"/>
<defs>
<filter id="filter0_d" x="13.897" y="6.25293" width="115.762" height="118.182" filterUnits="userSpaceOnUse" color-interpolation-filters="sRGB">
<feFlood flood-opacity="0" result="BackgroundImageFix"/>
<feColorMatrix in="SourceAlpha" type="matrix" values="0 0 0 0 0 0 0 0 0 0 0 0 0 0 0 0 0 0 127 0"/>
<feOffset dx="3" dy="4"/>
<feGaussianBlur stdDeviation="7.5"/>
<feColorMatrix type="matrix" values="0 0 0 0 0 0 0 0 0 0 0 0 0 0 0 0 0 0 0.25 0"/>
<feBlend mode="normal" in2="BackgroundImageFix" result="effect1_dropShadow"/>
<feBlend mode="normal" in="SourceGraphic" in2="effect1_dropShadow" result="shape"/>
</filter>
</defs>
</svg>