<svg width="101" height="217" viewBox="0 0 101 217" fill="none" xmlns="http://www.w3.org/2000/svg">
<path d="M33.1293 4.5127C33.1293 4.5127 32.0466 0.90505 30.4196 0V4.5127C30.4196 4.5127 23.9232 3.61027 19.3212 8.12035L23.6522 9.02279C23.6522 9.02279 17.2906 10.9782 15.9375 19.4018L18.6472 18.1993L25.956 32.6398L30.5579 24.818L39.7596 33.5423L37.5941 28.7289L41.1133 30.2332L38.6768 26.3223L49.5049 30.835L48.6925 28.4299L52.66 34.5869C52.66 34.5869 66.288 21.5105 51.3994 7.67175C51.4011 7.67175 44.6336 1.05301 33.1293 4.5127Z" fill="#2F2E41"/>
<path d="M31.8809 36.6412C31.8809 36.6412 35.916 50.8438 34.7034 52.7125C33.4909 54.5811 46.4059 64.6726 46.4059 64.6726L58.9156 62.4301L59.7229 46.3588C59.7229 46.3588 48.4235 37.3889 50.8453 30.6614L31.8809 36.6412Z" fill="#FFB9B9"/>
<path opacity="0.1" d="M31.8809 36.6412C31.8809 36.6412 35.916 50.8438 34.7034 52.7125C33.4909 54.5811 46.4059 64.6726 46.4059 64.6726L58.9156 62.4301L59.7229 46.3588C59.7229 46.3588 48.4235 37.3889 50.8453 30.6614L31.8809 36.6412Z" fill="black"/>
<path d="M21.6986 126.067C21.6986 126.067 18.4873 139.499 20.8956 150.513C23.304 161.527 24.5085 169.586 23.304 171.198C22.0995 172.81 20.8956 172.541 21.6986 174.422C22.5016 176.302 24.107 175.496 22.5016 177.377C20.8962 179.257 21.2977 182.481 21.2977 183.287C21.2977 184.092 19.2908 201.554 21.2977 203.435C23.3046 205.315 24.1053 205.047 24.1053 205.047L26.5137 214.718L39.3584 213.375L37.3516 204.509C37.3516 204.509 42.1683 202.897 40.1592 201.823C38.1501 200.749 36.9478 200.749 38.1523 200.749C39.3568 200.749 41.3636 200.48 39.7577 199.942C38.1517 199.405 42.5 185.483 42.5 185.483C42.5 185.483 43.2589 163.494 54.5 164.3C63.5951 167.941 66.5 177.377 66.5 177.377L72 185.483C72 185.483 77.8922 195.645 78.6952 196.719C79.4982 197.794 79.0967 198.062 78.6952 198.598C78.2937 199.134 75.4839 197.792 78.2937 199.941C81.1036 202.091 81.1013 202.896 81.1013 202.896L82.9077 217L95.9569 211.496V203.168C95.9569 203.168 98.3653 200.482 97.5623 198.332C96.7593 196.183 96.7593 185.975 97.5623 184.095C98.3653 182.215 97.9638 181.677 97.1608 180.871C96.3579 180.065 94.3532 180.602 95.9564 178.722C97.5595 176.841 98.7639 172.006 96.3578 168.513C93.9517 165.021 80.7032 130.635 75.0841 128.753C69.4649 126.871 21.6986 126.067 21.6986 126.067Z" fill="#2F2E41"/>
<path d="M38.7411 41.3149C47.9902 41.3149 55.4881 34.3705 55.4881 25.8041C55.4881 17.2378 47.9902 10.2933 38.7411 10.2933C29.492 10.2933 21.9941 17.2378 21.9941 25.8041C21.9941 34.3705 29.492 41.3149 38.7411 41.3149Z" fill="#FFB9B9"/>
<path d="M49.6361 52.3408L55.6894 42.5415C55.6894 42.5415 69.8131 41.8754 70.6203 43.3708C71.4276 44.8661 78.2876 118.87 78.2876 118.87C78.2876 118.87 81.5161 122.981 79.4979 125.597L77.4803 128.212V133.444C77.4803 133.444 67.3918 140.921 53.6718 139.424C39.9518 137.927 22.5996 131.202 22.5996 131.202L26.2317 110.272L25.8281 48.6029L33.9572 44.9325C33.9572 44.9325 43.1785 50.8454 44.7925 52.7141C46.4064 54.5827 49.6361 52.3408 49.6361 52.3408Z" fill="#3FB58B"/>
<path d="M35.5109 52.3407L33.6948 42.4364L8.87695 58.697L22.5947 96.0722C22.5947 96.0722 14.1202 110.275 15.7347 115.508C17.3492 120.74 18.1559 128.589 18.1559 128.589C18.1559 128.589 39.9463 133.821 39.5433 131.203C39.1402 128.584 39.5433 117 39.5433 117C39.5433 117 46.5997 68.5981 43.0709 61.2171C39.5421 53.8361 35.5109 52.3407 35.5109 52.3407Z" fill="#E6E6E6"/>
<path d="M57.7067 47.482L53.873 40.5674C53.873 40.3509 81.1105 43.8404 82.3248 45.9867L79.0946 103.545C79.0946 103.545 79.4982 111.767 81.5158 114.01C83.5334 116.252 83.1298 119.989 82.3231 120.363C81.5164 120.737 68.1994 124.474 68.1994 124.474C68.1994 124.474 55.286 103.918 56.4969 79.2482C57.7078 54.5781 57.7067 47.482 57.7067 47.482Z" fill="#E6E6E6"/>
<path d="M77.4811 46.3604L81.755 45.5176C83.428 46.3892 84.7578 47.7316 85.552 49.3501C86.7629 51.9643 100.887 79.9978 100.887 81.8665C100.887 83.7351 101.29 97.5639 92.412 97.5639C83.5338 97.5639 76.6738 62.4312 76.6738 62.4312L77.4811 46.3604Z" fill="#E6E6E6"/>
<path d="M16.9492 143.162L24.2129 153.253L28.2481 140.548L25.4255 136.81L16.9492 143.162Z" fill="#FFB9B9"/>
<path d="M12.5097 59.0677L8.87817 58.6943L0 102.797L15.3346 146.899L28.6516 137.555L19.3703 108.029L22.5982 85.2304L12.5097 59.0677Z" fill="#E6E6E6"/>
<circle cx="22" cy="141" r="3" fill="#68D2FF"/>
<path d="M56.2243 21.4278C54.0068 13.9417 47.0723 8.47791 38.8558 8.47791C35.9906 8.50516 33.1755 9.17675 30.6527 10.4349C28.1298 11.6931 25.9748 13.5001 24.373 15.7005L28.5166 23.0549L32.6483 16.7462L40.9112 23.7827L38.967 19.9006L42.1283 21.1136L39.9408 17.9592L49.6617 21.5988L48.9324 19.6574L53.5501 25.2383C54.6235 24.086 55.5231 22.8042 56.2243 21.4278V21.4278Z" fill="#2F2E41"/>
<path opacity="0.1" d="M74.8574 64.4877L85.7306 73.2678L80.1035 61.8698L74.8574 64.4877Z" fill="black"/>
<path d="M70.2175 63.1794C70.2175 63.1794 64.9715 48.2291 58.5151 50.8454C52.0587 53.4617 60.9363 69.1592 60.9363 69.1592L66.586 72.5232L70.2175 63.1794Z" fill="#FFB9B9"/>
<path d="M98.061 82.2409L69.8131 61.6846L59.7246 75.5139C59.7246 75.5139 86.358 101.677 92.4102 96.444C98.4624 91.2113 98.061 82.2409 98.061 82.2409Z" fill="#E6E6E6"/>
</svg>
